<?xml version="1.0" encoding="UTF-8"?>
<!DOCTYPE svg PUBLIC "-//W3C//DTD SVG 1.1//EN" "http://www.w3.org/Graphics/SVG/1.1/DTD/svg11.dtd">
<!-- Creator: CorelDRAW -->
<svg xmlns="http://www.w3.org/2000/svg" xml:space="preserve" width="174.177mm" height="132.771mm" version="1.1" style="shape-rendering:geometricPrecision; text-rendering:geometricPrecision; image-rendering:optimizeQuality; fill-rule:evenodd; clip-rule:evenodd"
viewBox="0 0 17418 13277"
 xmlns:xlink="http://www.w3.org/1999/xlink">
 <defs>
  <style type="text/css">
   <![CDATA[
    .fil7 {fill:#FFF3F3;fill-rule:nonzero}
    .fil19 {fill:#E9DADA;fill-rule:nonzero}
    .fil20 {fill:#A49595;fill-rule:nonzero}
    .fil3 {fill:#FFEEEE;fill-rule:nonzero}
    .fil18 {fill:#D2BEBE;fill-rule:nonzero}
    .fil16 {fill:#FFE6D9;fill-rule:nonzero}
    .fil17 {fill:#FFD7CA;fill-rule:nonzero}
    .fil11 {fill:#FFC5B8;fill-rule:nonzero}
    .fil13 {fill:#FFB6A9;fill-rule:nonzero}
    .fil22 {fill:#FAAEAE;fill-rule:nonzero}
    .fil12 {fill:#F59F92;fill-rule:nonzero}
    .fil14 {fill:#E18679;fill-rule:nonzero}
    .fil25 {fill:#C7695C;fill-rule:nonzero}
    .fil24 {fill:#EB8080;fill-rule:nonzero}
    .fil21 {fill:#D76767;fill-rule:nonzero}
    .fil23 {fill:#C24D4D;fill-rule:nonzero}
    .fil4 {fill:#D90000;fill-rule:nonzero}
    .fil28 {fill:#DAE1E6;fill-rule:nonzero}
    .fil15 {fill:#8A998A;fill-rule:nonzero}
    .fil32 {fill:#BECAD4;fill-rule:nonzero}
    .fil30 {fill:#E6E6FF;fill-rule:nonzero}
    .fil10 {fill:#7E4E1D;fill-rule:nonzero}
    .fil27 {fill:#B8B8D9;fill-rule:nonzero}
    .fil29 {fill:#98ACBB;fill-rule:nonzero}
    .fil2 {fill:#658192;fill-rule:nonzero}
    .fil8 {fill:#7C95A9;fill-rule:nonzero}
    .fil6 {fill:#2E5061;fill-rule:nonzero}
    .fil31 {fill:#C0CAFF;fill-rule:nonzero}
    .fil33 {fill:black;fill-rule:nonzero}
    .fil5 {fill:#999999;fill-rule:nonzero}
    .fil26 {fill:#B2B2B2;fill-rule:nonzero}
    .fil9 {fill:#CCCCCC;fill-rule:nonzero}
    .fil1 {fill:#E5E5E5;fill-rule:nonzero}
    .fil0 {fill:#F4F4F4;fill-rule:nonzero}
   ]]>
  </style>
 </defs>
 <g id="Layer_x0020_1">
  <metadata id="CorelCorpID_0Corel-Layer"/>
  <g id="peop3024.ai">
   <g>
    <path class="fil0" d="M1119 3654l-198 87 -793 458 38 9027 6673 12 236 -1226 -37 -508 12 -123 359 -1040 1832 -2229 1177 -496 445 -1894 -12 -223 -161 87 -136 62 -74 136 -149 0 -186 136c0,0 -359,-284 -458,-284 -99,0 -272,0 -272,0l-99 -199 -75 -86 -161 -149 -37 -223 -86 -99 -124 -161 -483 -421 -173 -185 -347 -124 -223 -112 -297 595 -508 705 -2229 595 -1460 -1152 -174 -123 -248 -335 -123 -371 -50 -112 -693 0 -619 -99 -87 74z"/>
    <polygon class="fil1" points="6815,10019 6957,10322 7099,10446 7087,10508 6555,10830 5911,11046 5904,10842 6096,10508 6666,10198 "/>
    <path class="fil1" d="M3905 13201c0,0 -75,-496 12,-644 87,-149 483,-149 483,-149l347 830 2129 -12 174 -1177 0 -619c0,0 520,-1189 359,-1102 -161,87 -879,496 -879,496l-570 148 -62 384 -359 210 -161 273 -1832 -372 -173 409 37 173 198 669 297 483z"/>
    <polygon class="fil2" points="14689,13250 8523,13263 8703,13182 8932,13071 9272,12984 9322,12848 9433,12804 9774,12780 9866,12631 9879,12569 9860,12495 9879,12266 10040,12031 10492,12031 10869,12006 11030,11938 11105,11764 11947,11901 12869,11925 13277,11913 13537,12049 14330,12309 14534,12544 14516,12854 "/>
    <polygon class="fil3" points="12027,7994 11854,8031 11414,8031 11291,8031 11111,8056 9440,9771 9118,10254 8944,10656 8932,10836 8901,11343 8907,11529 8957,11795 9006,11932 9211,12167 9309,12204 9749,12179 10158,11987 10603,12018 10820,12018 10981,11981 11049,11907 11105,11770 11823,11882 13439,11863 14386,12309 14621,12600 14708,12650 14949,12681 15463,12866 16534,13040 16794,13015 16955,12934 17159,12693 17351,11839 17382,11430 17382,11127 17345,10997 17190,10631 16986,10297 16930,10074 16429,9263 16101,8762 16026,8644 15928,8576 15624,8378 15345,8248 15079,8149 14974,8056 14918,8038 14646,8025 13996,8236 13513,8273 13191,8267 13037,8298 12653,8533 12108,8396 12052,8112 "/>
    <polygon class="fil4" points="12628,8539 12578,8576 12294,8582 12157,8595 12003,8595 11903,8533 11829,8403 11786,8242 11891,8236 12040,8322 12263,8490 "/>
    <polygon class="fil4" points="14578,7518 14739,7666 14807,8025 14788,8112 14609,8496 14497,8694 14349,8898 14287,8935 14200,8923 14132,8904 14200,8700 14194,8601 14064,8328 13915,8248 13674,8279 13451,8291 13389,8285 13284,8254 13315,8205 13494,8186 13742,8155 13965,8025 14429,7592 "/>
    <path class="fil1" d="M9749 6639c0,0 -173,420 -173,619 0,198 74,544 74,544l-792 570 420 -1114 199 -521 272 -98z"/>
    <path class="fil5" d="M3546 11517l520 359 347 471 185 284 198 607c0,0 -86,-755 -61,-891 24,-137 123,-223 260,-199 136,25 581,433 581,433l87 372 0 -532c0,0 929,111 953,-62 25,-174 -383,-471 -383,-471 0,0 173,-74 482,-347 310,-272 496,-594 496,-594l111 -297c0,0 -730,755 -978,842 -248,87 -829,149 -829,149l-174 186 -1040 -186 -705 -211 -50 87z"/>
    <path class="fil6" d="M13699 12359c0,0 495,198 644,408 148,211 24,409 24,409l298 50 -87 -285 -112 -372 0 -210 -718 -198 -49 198z"/>
    <path class="fil7" d="M11829 8570c0,0 -25,-87 -111,-198 -87,-112 -174,247 -174,247 0,0 -198,558 -87,607 112,50 409,-235 806,-124 396,112 879,310 879,310l483 458c0,0 272,347 346,359 74,12 124,-37 124,-37 0,0 -297,-396 -297,-471 0,-74 87,-111 87,-111l594 285c0,0 173,49 297,-87 124,-136 260,-520 272,-607 13,-86 37,-445 37,-445l124 -112c0,0 -247,87 -297,149 -49,62 -247,780 -297,792 -50,13 -1127,-384 -1362,-532 -235,-149 -1226,-161 -1300,-297 -74,-137 -124,-186 -124,-186z"/>
    <path class="fil8" d="M13563 12904l-1201 -248 -805 607 1089 -13c0,0 198,-37 174,-161 -25,-124 -100,-185 -100,-185 0,0 545,123 632,123 87,0 211,-123 211,-123z"/>
    <path class="fil8" d="M13055 12012l-1065 37c0,0 -198,25 -235,174 -37,148 -136,210 -25,210 111,0 520,-149 520,-149l-173 223c0,0 -347,124 -409,198 -62,75 -74,298 -74,298l173 -298c0,0 198,99 335,-12 136,-112 0,-210 185,-210 186,0 817,260 867,111 49,-149 62,-458 62,-458 0,0 186,483 186,322 0,-161 -62,-347 -112,-384 -49,-37 -235,-62 -235,-62z"/>
    <path class="fil8" d="M11495 11864c0,0 -223,284 -285,359 -62,74 -297,841 -297,841l0 199 421 0 -74 -372c0,0 148,-198 173,-272 24,-75 111,-235 111,-235 0,0 13,-161 62,-211 50,-49 248,-235 248,-235l-359 -74z"/>
    <path class="fil1" d="M7397 6366l520 -1015 321 -124 -173 743 -99 891c0,0 495,-1238 520,-1337 25,-99 297,-347 297,-347l50 496 -248 668 -223 718 1115 -594 -496 768 -743 842 248 198 -396 322 -446 322 -396 49c0,0 297,-767 272,-1040 -25,-272 -346,-347 -346,-347l223 -1213z"/>
    <path class="fil8" d="M11049 12185l-1040 446 -173 149c0,0 -396,37 -446,99 -50,62 37,136 37,136l-458 136 867 37c0,0 161,0 198,-49 37,-50 -74,-235 -74,-235 0,0 260,0 334,0 74,0 198,-50 198,-50 0,0 -74,111 -37,210 37,100 74,137 136,100 62,-38 74,-384 74,-384l285 -297 -235 24 334 -322z"/>
    <path class="fil9" d="M10826 5648c0,0 -105,-49 -179,49 -75,99 -99,230 -99,230 0,0 -260,49 -298,74 -37,24 -136,111 -136,111 0,0 -49,-142 -80,-93 -31,50 -118,291 -118,291l-186 118 -229 365 328 -117c0,0 174,303 174,365 0,62 -19,774 -19,774l1090 241 291 -25 421 7 204 -19 -247 -576 -335 -928 -328 -384 -198 -359 -56 -124z"/>
    <path class="fil9" d="M8238 8075l694 -768 520 -867c0,0 -347,793 -396,1090 -50,297 -298,743 -298,743l-74 186 -446 -384z"/>
    <path class="fil10" d="M14955 4014l87 390c0,0 272,358 322,841 50,483 13,805 -56,991 -68,186 -210,501 -210,501l-235 -92 -229 -533 -1034 -62 -37 -482 43 -428 -75 -235 -284 -186 229 -43 18 -142 -43 -87 -266 0 -223 -118 -173 -433 12 -390 217 -49 235 -13 501 0 242 -25 526 149 353 229 80 217z"/>
    <polygon class="fil11" points="13064,11313 13166,11356 13200,11430 13200,11489 13179,11538 13132,11551 13061,11538 12841,11464 13024,11309 "/>
    <polygon class="fil11" points="12798,10214 12300,10344 12052,10443 11993,10749 12238,11238 12408,11334 12556,11220 12733,11012 12362,10783 12352,10730 12547,10585 12990,10384 12844,10304 "/>
    <path class="fil11" d="M12064 9703l-31 -65 -34 -28 -55 -9 -37 -3 -22 62 -6 182 -53 136 -71 140 -232 151 -96 90 -186 207 -81 35 -145 37 -183 90 -102 92 -123 192 -140 301 44 318 86 164 229 25 554 9 421 65 356 65 307 65 102 -18c0,0 170,-68 139,-65 -31,3 254,-16 254,-16l275 37 109 -89 269 124c0,0 644,148 705,182 63,34 329,105 329,105l309 34 118 -80c0,0 31,-251 31,-328 0,-77 -28,-319 -28,-319l-121 -195 -124 -130 -108 -34 -105 -34 -133 -90 -192 -158 -260 -222 -260 -214 -25 -81 6 -176 -90 3 -77 22 -62 65 -40 53 -269 -152 -260 -130 -118 -50 -74 65 6 37 19 44 31 77 377 220 99 102 37 161 -167 -6 -161 -31 -65 6 -111 18 -489 16 -81 37 -18 65 15 43 118 62 303 31 -68 16 -114 12 -38 10 -30 74 21 46 96 53 501 77 242 16 152 99 -28 176 -96 96 15 65 -93 -62 -835 -275 -242 -471 -201 -489 -31 -71c0,0 130,-130 161,-183 31,-52 62,-139 62,-204 0,-65 -37,-198 -37,-198l-50 -99z"/>
    <path class="fil11" d="M11445 4985c0,0 -74,149 -74,298 0,148 6,582 6,582l155 365 0 247 -25 223 7 130 6 124 49 155 93 204 81 149 43 173 68 149 161 303 19 62 -7 87 19 99 285 161 210 43 161 -25 415 -235 210 -74 452 -75 545 -451 563 -638 130 -334 -229 -155 -322 -359 -879 -322 -12 -328 31 -434 -37 -216 -285 -174 229 -49 -12 -136 -31 -75 -372 -49 -427 -180 -217 -25 81 56 31 56 -87 161 -309 105 -205 242 -445 49 -25 37 -50 74z"/>
    <polygon class="fil12" points="12714,3772 12720,4131 12535,4255 12554,4311 12467,4472 12343,4571 12139,4552 12108,4750 12003,4893 11476,4924 11315,5382 11408,5926 11291,6168 10963,5982 10863,5679 10832,5524 10820,5450 10647,5282 10473,5153 10473,5078 10480,5029 10523,4992 10628,4936 10709,4942 10882,4998 10894,4781 10913,4744 11099,4620 11129,4404 11297,4255 11544,4088 11563,3939 11711,3760 11903,3747 12052,3741 12188,3599 12479,3574 12702,3605 12739,3679 "/>
    <path class="fil12" d="M10498 7833l130 -25 68 7 56 31 56 30 86 -154 167 -25 81 31 62 167 -186 353 19 155 -7 365 -68 136 -198 137 -74 55 -31 186 -62 74 -105 124 -124 99 -179 136 -192 0 -254 44 -260 -19 -285 -68 -260 -25 -155 68 -1040 471c0,0 -508,235 -551,235 -43,0 -142,-19 -142,-19l-223 -365 186 -340 80 -304 37 -340 805 -229 365 -223 403 -142 148 -217 235 -167 254 -297 248 0 50 18 160 56 94 -6 142 -19 167 -185 68 -63 93 -18 93 18 49 81 -6 173z"/>
    <polygon class="fil12" points="4322,4262 4524,4679 4837,5129 4844,5266 4818,5669 4785,5819 4661,5826 4485,5643 4101,5337 3840,4979 3019,4588 2772,4288 2655,4112 2655,3937 2714,3819 2928,3787 3235,3858 3443,3969 3730,4243 3821,4295 4081,4295 4231,4236 "/>
    <path class="fil12" d="M7592 3487l40 248 -33 189 -59 182 -32 111 -39 130 -66 189 -299 273 -150 215 -52 157 -117 65 -352 143 -547 33 -300 -46 -332 -72 -254 -91c0,0 52,20 -13,-104 -65,-124 -306,-573 -306,-573l-53 -131 274 -254 795 0 267 -104 697 -39 397 -156c0,0 319,-46 358,-65 40,-20 92,-196 92,-196l84 -104z"/>
    <path class="fil13" d="M14210 10939c0,0 -231,-152 -283,-168 -53,-16 -205,-32 -205,-32l-5 163c0,0 136,157 131,204 -5,48 -58,58 -89,74 -32,16 -110,52 -121,84 -10,31 100,105 100,105l84 105c0,0 5,68 5,94 0,26 32,121 32,121l-79 15 -16 -73 -52 11 -6 94 -141 26 204 79 305 215 477 136 477 53c0,0 63,-105 58,-184 -5,-79 -199,-163 -241,-236 -42,-73 -63,-147 -42,-178 21,-32 68,-89 68,-142 0,-52 -47,-157 -47,-157l-310 -168 -304 -241z"/>
    <path class="fil14" d="M13318 11778l131 26 68 -16 69 -47 36 -89 27 100 99 21 137 5c0,0 -42,89 -21,110 21,21 120,21 120,21 0,0 16,63 48,84 31,21 241,47 241,47l141 -21c0,0 205,126 300,147 94,21 194,26 194,26l178 -16 -78 95 -168 37 -106 0 -629 -105 -624 -252 -163 -173z"/>
    <polygon class="fil15" points="12087,7698 11987,7706 10771,7989 10771,7880 11843,7663 12052,7668 "/>
    <polygon class="fil15" points="10250,8180 10112,8223 10046,8258 9903,8332 9699,8375 9495,8340 9348,8249 9261,8184 9261,8149 9421,8128 9773,8141 9869,8167 9977,8206 10107,8141 10216,8084 10294,8067 "/>
    <polygon class="fil16" points="5944,5049 6023,5128 6151,5185 6245,5163 6237,5049 "/>
    <path class="fil17" d="M13507 11631c0,0 -47,0 -79,21 -31,21 -42,68 -42,68l42 42 63 5 37 -26 26 -52 -47 -58z"/>
    <path class="fil16" d="M13481 11636c0,0 -48,26 -58,48 -10,20 0,52 0,52l47 -16 11 -84z"/>
    <path class="fil16" d="M13764 11516c0,0 -16,31 -58,31 -42,0 -131,-16 -152,0 -21,16 -94,11 -94,11l26 -79 147 5 110 -26 63 31 -42 27z"/>
    <path class="fil12" d="M12447 11185l425 53 441 -11 142 74 215 125c0,0 -6,42 -27,48 -21,5 -152,-16 -152,-16l-94 -79 -126 -58 -68 -10 -326 -21 -251 -37 -142 -36 -37 -32z"/>
    <path class="fil17" d="M13659 10277c0,0 -78,64 -94,90 -16,26 -11,68 -11,68l84 78 5 -125c0,0 37,-16 48,-53 10,-36 -32,-58 -32,-58z"/>
    <path class="fil13" d="M13407 10367c0,0 26,68 11,104 -16,38 -95,58 -95,58l-220 -146 26 -111 -31 -73 -168 -84 -16 68 -42 47 -79 5 48 74 309 162 137 106 21 178 115 32 142 -6 105 -68 126 42 73 -32 -121 -42 -68 -57 -173 -194 -100 -63z"/>
    <path class="fil17" d="M13182 10272l189 116c0,0 5,47 -26,79 -32,31 -79,4 -79,4 0,0 -89,-52 -95,-88 -5,-37 -10,-79 -10,-79l21 -32z"/>
    <path class="fil17" d="M12867 10083l37 74c0,0 -37,37 -69,37 -31,0 -47,-42 -47,-42l32 -58 47 -11z"/>
    <path class="fil17" d="M13712 10792l5 152c0,0 63,157 0,162 -63,6 -378,-152 -378,-152l-283 -5 -331 5 -115 -21c0,0 -53,-36 -21,-68 32,-31 42,-42 100,-47 57,-5 241,-5 241,-5 0,0 26,62 89,62 63,0 147,-10 147,-10l42 -63c0,0 309,27 346,21 37,-5 131,-42 131,-42l27 11z"/>
    <polygon class="fil16" points="12285,10829 12274,10875 12353,10902 12353,10855 12353,10818 "/>
    <path class="fil17" d="M13229 10991c0,0 68,0 79,47 10,47 -11,110 -11,110l-105 37 -225 -5 -74 -68 -52 -16c0,0 -6,42 -105,37 -100,-6 -115,10 -115,-27 0,-36 15,-68 15,-68l336 -37 257 -10z"/>
    <path class="fil16" d="M12914 11059l163 -16 100 6 5 84c0,0 -184,-6 -205,-11 -21,-5 -63,-63 -63,-63z"/>
    <polygon class="fil16" points="12495,11112 12657,11117 12657,11054 12500,11065 "/>
    <path class="fil17" d="M10837 10829l435 -42 174 -6 20 110c0,0 100,37 90,74 -11,36 -79,84 -79,84l10 183 -110 6 -220 -48 110 158c0,0 -294,57 -393,63 -100,5 -237,-11 -237,-126 0,-116 58,-273 111,-326 52,-52 89,-130 89,-130z"/>
    <path class="fil17" d="M11965 9763l-11 216c0,0 -42,0 -63,15 -21,16 -136,200 -136,200l-126 52 -168 95 -147 210c0,0 189,0 242,-38 52,-36 246,-194 246,-194 0,0 126,-94 173,-194 47,-99 47,-230 47,-230l-21 -100 -36 -32z"/>
    <path class="fil12" d="M12022 9643l90 147 36 141 0 79 -36 131 -53 94 -121 153 27 73 -95 37 -141 11 -16 -53c0,0 247,-199 309,-268 63,-68 32,-320 32,-320l-42 -178 -21 -79 31 32z"/>
    <path class="fil14" d="M12699 11940l-142 74 -141 5 -315 -89 -110 -21 -451 -53 -362 -73 -331 11 -204 10 -121 -126 -37 -236 58 -183 58 346c0,0 36,79 131,79 94,0 351,-42 351,-42l766 194 27 -84c0,0 120,31 146,0 27,-32 6,-132 6,-132l320 158 346 100 5 62z"/>
    <path class="fil13" d="M12458 11437l441 142 372 136 47 73 0 74 -42 78 -79 22 -503 -64 -472 -162 -383 -215 262 37c0,0 294,152 315,104 21,-47 16,-104 16,-104l-163 -158 189 37z"/>
    <polygon class="fil13" points="13208,11762 13166,11788 13171,11851 13219,11878 13266,11841 13276,11794 13234,11757 "/>
    <path class="fil14" d="M12033 11589l393 142c0,0 -36,-53 32,-89 68,-37 121,-32 121,-32l0 142 230 47 58 -53c0,0 26,-47 63,-47 37,0 21,89 21,89l26 48 105 31 37 -16 42 42 142 16 -53 47 -79 0 -550 -110 -273 -63c0,0 -194,-105 -231,-110 -37,-5 -84,-84 -84,-84z"/>
    <path class="fil12" d="M13140 11384c0,0 -111,-5 -137,11 -26,16 -31,52 -31,52l21 37 157 58 -47 16 -236 -74 -330 -63 42 68 -357 -73 -294 -121 -220 -42 -42 -73c0,0 178,10 257,10 78,0 157,-5 157,-5l273 74 152 -48 294 63 268 42 73 21 0 47z"/>
    <path class="fil14" d="M12704 11264l16 78 -26 42c0,0 -115,32 -26,37 89,5 220,53 220,53l0 -79 95 -47 130 -21 -157 -37 -183 -26 -69 0z"/>
    <path class="fil17" d="M12421 11059c0,0 -624,-120 -629,-152 -6,-32 47,-84 47,-84l210 -84 94 42c0,0 0,94 21,105 21,11 252,126 252,126l5 47z"/>
    <polygon class="fil12" points="12862,10330 12668,10435 12505,10529 12363,10592 12138,10661 12096,10729 12285,10765 12353,10708 12584,10571 12987,10377 "/>
    <path class="fil17" d="M12694 10272l-179 32 -78 31 10 58c0,0 -78,147 -57,116 21,-32 141,-27 204,-74 63,-47 68,-100 105,-105 37,-5 63,-37 63,-37l-68 -21z"/>
    <path class="fil17" d="M12295 10398l-315 95 -47 47c0,0 -57,63 -47,89 10,26 94,79 94,79l84 10c0,0 -63,-37 0,-79 63,-42 299,-104 299,-104 0,0 -47,-48 -47,-79 0,-31 37,-95 37,-95l-58 37z"/>
    <polygon class="fil18" points="12673,10551 13009,10687 12925,10750 12683,10666 12421,10687 "/>
    <path class="fil19" d="M15401 8316c0,0 231,335 231,440 0,105 -95,410 -95,410l-231 492 -178 735 -10 -451 10 -598c0,0 74,136 137,84 62,-53 167,-556 167,-556l-31 -556z"/>
    <path class="fil18" d="M17310 11684l-104 42 -242 -263c0,0 -42,-94 -126,-94 -84,0 -262,-11 -262,-11l304 126 137 336c0,0 52,126 -95,74 -147,-53 -398,-263 -398,-263l220 409 -21 168 -294 -367c0,0 178,514 0,545 -178,32 -378,32 -378,32l-367 -84 -84 116 1165 377 419 -619 126 -524z"/>
    <path class="fil18" d="M16146 11358l503 -231 557 -31c0,0 136,-189 -63,-220 -200,-32 -452,83 -452,83l-346 200 -199 199z"/>
    <path class="fil20" d="M14813 12638l284 -147 136 -167 105 -305 -32 525c0,0 42,115 105,73 63,-42 126,-315 126,-315 0,0 567,273 745,315 179,42 399,0 399,0l42 -493 -53 -346c0,0 158,420 200,357 42,-63 115,-241 115,-241l-42 -294c0,0 116,252 200,241 83,-11 209,-157 209,-157l-62 472 -126 514 -84 136 -179 189 -1164 -136 -189 0 -462 -116 -273 -105z"/>
    <path class="fil18" d="M10039 10183c0,0 -210,-147 -367,-147 -157,0 -325,95 -325,95l-105 115c0,0 220,-94 357,-105 136,-10 336,63 336,63l178 126 -74 -147z"/>
    <path class="fil18" d="M14110 8609l-262 42 -525 21c0,0 189,-126 252,-147 63,-21 21,-126 95,-126 73,0 314,-63 314,-63l116 126 10 147z"/>
    <path class="fil18" d="M14540 10403l-388 -325c0,0 -293,-210 -262,-304 32,-94 189,10 189,10l294 189 629 242 -325 62 189 274 0 188 -326 -336z"/>
    <polygon class="fil20" points="15118,11043 15044,10792 14929,10634 14572,10403 14730,10592 14845,10792 14971,10939 "/>
    <path class="fil19" d="M12054 9501c0,0 766,189 860,220 95,32 630,546 630,546l220 0 74 94 367 252 283 42 -535 -356c0,0 -525,-515 -630,-641 -104,-125 -839,-409 -839,-409l-409 11c0,0 -252,31 -252,126 0,94 231,115 231,115z"/>
    <path class="fil18" d="M10732 12019l-294 -94 -262 -179 -157 32c0,0 31,147 -11,157 -42,11 -325,42 -325,42l157 -209 -63 -53c0,0 126,-105 136,-147 11,-42 -31,-136 -31,-136l-95 168 -262 104c0,0 231,53 189,74 -42,21 -283,199 -283,199l-399 -73 42 136 189 158 640 -84 273 -126 273 63 283 -32z"/>
    <polygon class="fil18" points="10994,10194 11309,9921 11812,9984 11739,10036 11298,10068 11130,10215 10994,10319 10805,10519 10784,10225 10837,10078 11015,9868 "/>
    <path class="fil20" d="M11508 8368c0,0 -126,325 -126,399 0,73 -10,440 -10,440 0,0 -52,179 -158,168 -104,-10 -136,32 -136,32l-52 535 -11 -598 -115 -410 73 -73 115 157 232 -493 188 -157z"/>
    <path class="fil13" d="M12857 6191c0,0 115,115 188,73 74,-42 116,-105 116,-105l0 -115 -189 -94 -147 -53c0,0 42,105 42,157 0,53 -74,95 -74,95l64 42z"/>
    <path class="fil13" d="M13559 5184l-10 650 -21 126 -168 -63 -73 -273c0,0 178,-294 178,-472 0,-178 -231,-388 -115,-367 115,21 178,115 178,115l73 189 -42 95z"/>
    <path class="fil12" d="M14031 6599c0,0 29,186 5,198 -23,12 -93,111 -93,163 0,53 17,81 29,146 12,64 82,93 82,93l175 93 -269 0 -93 -122 0 -129 47 -267 117 -175z"/>
    <path class="fil14" d="M14252 6558l70 181c0,0 35,75 0,87 -35,12 -76,-17 -76,-17l-117 -18 18 -58 -64 -187 169 12z"/>
    <path class="fil13" d="M13891 7269l-134 407 0 129 175 93 99 -58 128 -274 -123 -64 -52 -192 309 11 145 245 -151 192 -152 117 -215 186 -169 105c0,0 -262,17 -303,23 -41,6 -221,29 -221,29l-472 286 -297 41 -105 -24c0,0 262,-29 355,-116 93,-88 606,-443 606,-443l286 -437 69 -285 152 -513 46 -134 152 -64c0,0 35,76 12,140 -24,64 -158,407 -158,407l18 193z"/>
    <path class="fil12" d="M13885 7210c0,0 128,216 175,222 46,6 192,-6 192,-6l35 81 -58 280 93 -64 145 -413 -204 -12 -378 -88z"/>
    <polygon class="fil14" points="12289,8510 12650,8527 13075,8306 13483,8084 13669,8020 13809,7968 13611,7945 13646,7869 13658,7613 13419,7956 12999,8259 12743,8434 12539,8510 "/>
    <path class="fil17" d="M12428 8201c0,0 -145,-35 -180,-18 -35,18 -93,82 -93,82l105 81 215 -11c0,0 157,-58 163,-99 6,-41 24,-163 24,-163 0,0 17,-76 -24,-76 -41,0 -122,47 -122,47l-35 104 -53 53z"/>
    <polygon class="fil16" points="12399,8201 12242,8201 12260,8259 12388,8253 "/>
    <polygon class="fil12" points="12033,7729 11997,8032 12050,8160 12027,8288 12114,8411 12114,8213 12172,8160 12364,8172 12411,8084 12137,8090 12096,7945 12050,7810 "/>
    <path class="fil13" d="M11817 6867c0,0 -64,157 -64,186 0,29 0,88 0,88l52 169 -128 -158 -23 -198 52 -157 111 70z"/>
    <polygon class="fil17" points="12260,6902 12300,6966 12335,7205 12265,7216 12067,7175 11916,7164 11864,7129 11852,7007 11939,7088 11980,7065 11974,6937 11997,6896 12120,6913 "/>
    <path class="fil16" d="M12003 6948l0 134 -52 18 -41 -53 6 76 81 24 76 -6 12 -117c0,0 99,-81 76,-81 -24,0 -158,5 -158,5z"/>
    <polygon class="fil17" points="12038,6651 12155,6663 12201,6750 12143,6779 12027,6739 11997,6704 "/>
    <polygon class="fil12" points="11782,5900 11700,5865 11549,5917 11514,6005 11409,6016 11555,6168 11619,6080 11607,5981 11671,5923 "/>
    <polygon class="fil18" points="12364,6139 12417,6109 12464,6016 12411,5993 12295,6028 "/>
    <path class="fil17" d="M12819 6273l116 35 152 35 157 -193c0,0 23,-104 64,-134 41,-29 117,-58 117,-58l46 181 76 157 -128 82c0,0 -274,104 -309,145 -35,41 -47,291 -198,338 -151,47 -250,11 -250,11l-169 -93 -123 -46 -64 -99 29 -315c0,0 105,134 233,163 128,30 239,-52 239,-52l12 -157z"/>
    <path class="fil16" d="M12545 6593c0,0 93,-12 146,-12 52,0 110,-52 110,-52l30 58c0,0 -41,105 -76,128 -35,24 -163,0 -163,0l-47 -122z"/>
    <path class="fil17" d="M11922 6080l75 24 216 105 52 -24 88 12 -58 58 58 128 -6 187 -82 70 -250 -128 -105 98c0,0 -64,53 -116,18 -53,-35 -47,-128 -47,-128l134 -204 41 -216z"/>
    <path class="fil16" d="M12015 6191c0,0 -12,-82 -58,-41 -47,41 -128,274 -128,274 0,0 110,47 133,29 24,-17 117,-12 117,-12l221 164c0,0 -29,-158 -40,-199 -12,-40 -30,-87 -30,-87 0,0 -46,-64 -64,-87 -17,-23 -151,-41 -151,-41z"/>
    <path class="fil12" d="M12731 6109l65 82 186 58 -93 -116 -274 -128 -157 -70 116 -105c0,0 -297,-59 -314,-35 -18,23 -12,192 -12,192l268 35 215 87z"/>
    <path class="fil17" d="M12627 4542c0,0 139,-23 209,169 70,193 94,292 94,332 0,41 -94,158 -94,158 0,0 -250,93 -303,99 -52,5 -268,23 -337,17 -70,-6 -140,-163 -123,-204 18,-40 99,-128 99,-128l134 -192 -17 -146 215 -35 123 -70z"/>
    <path class="fil16" d="M12481 4630l-198 23 52 186 -93 193c0,0 268,-29 315,-47 46,-17 52,-256 52,-256l18 -117 -24 -35 -122 53z"/>
    <path class="fil14" d="M11537 4950l600 -23c0,0 146,-64 163,-134 18,-70 -93,-152 -93,-152 0,0 210,-17 292,-52 81,-35 116,-76 116,-76l6 -93 -41 -76c0,0 6,-6 70,0 64,6 303,99 303,99l274 117 279 116 -35 -186 -52 -47 -122 0 -228 -35 -419 -209 -320 0 209 93 0 76 -140 180 -151 12 -140 -18c0,0 47,65 35,88 -12,23 -52,169 -52,169l-88 75 -163 18 -332 17 29 41z"/>
    <path class="fil21" d="M12464 7525l-24 140 -70 64 -146 23 -133 0 -53 -29c0,0 -29,-47 -5,-70 23,-23 81,-81 81,-81l12 -123 145 -81 93 46 100 111z"/>
    <polygon class="fil22" points="12137,7653 12242,7648 12207,7706 12114,7706 "/>
    <path class="fil23" d="M12458 7542l-111 -17 -87 -18 -181 18c0,0 58,-128 99,-134 41,-6 99,12 122,12 24,0 82,46 82,46l76 58 0 35z"/>
    <polygon class="fil17" points="12050,7735 12196,7741 12341,7729 12423,7700 12376,7799 12265,7822 12161,7828 12044,7822 "/>
    <path class="fil24" d="M12207 7286l-116 -70c0,0 -129,-11 -152,-11 -23,0 -93,-18 -116,35 -24,52 17,93 17,93l134 76 250 -35 -17 -88z"/>
    <polygon class="fil24" points="12044,7968 12201,7962 12358,7927 12434,7875 12458,7805 12458,7711 12376,7851 12149,7840 12056,7840 12033,7880 "/>
    <polygon class="fil22" points="12411,7869 12283,7875 12248,7910 12358,7915 "/>
    <polygon class="fil14" points="11658,6739 11761,6765 11865,6721 11934,6713 12012,6799 12176,6842 12133,6877 11960,6842 11796,6886 "/>
    <path class="fil17" d="M14361 6920l-250 17c0,0 -61,87 52,139 112,52 164,-26 164,-26l25 -78 130 -26 -121 -26z"/>
    <path class="fil14" d="M12331 6151c0,0 -60,-25 -86,-60 -26,-35 -103,-147 -103,-147l-27 -95 9 -103 225 0 -18 121 104 120 -86 69 -18 95z"/>
    <path class="fil14" d="M14266 6549l78 8 138 -25 78 25 104 164 69 87c0,0 -9,78 -35,129 -26,52 -104,130 -104,130 0,0 251,-52 268,-112 17,-61 35,-277 35,-277l-164 -190c0,0 -104,-172 -139,-172 -34,0 -155,-9 -198,8 -44,18 -208,52 -208,52l78 173z"/>
    <polygon class="fil14" points="12686,3663 12634,3721 12563,3748 12471,3767 12315,3761 12380,3819 12497,3839 12680,3839 12771,3787 12771,3676 "/>
    <polygon class="fil13" points="12387,3950 12471,3995 12647,4028 12647,3963 12608,3904 12439,3884 12387,3911 "/>
    <path class="fil14" d="M11559 3995l183 -78 410 65 98 20 98 -13c0,0 -27,58 32,84 59,26 222,46 222,46l97 19 -188 72 -209 -13 -235 -85 -377 -84 -170 91 39 -124z"/>
    <path class="fil11" d="M12198 4321c0,0 -13,13 65,45 78,33 156,72 156,72 0,0 124,-110 98,-110 -26,0 -215,-72 -215,-72 0,0 -39,0 -65,13 -26,13 -39,52 -39,52z"/>
    <polygon class="fil14" points="11097,4555 11396,4340 11514,4269 11612,4328 11924,4373 12003,4314 12035,4432 12133,4490 12341,4529 12270,4562 12074,4542 11514,4438 11449,4438 11103,4608 "/>
    <polygon class="fil14" points="10947,5011 11188,4972 11481,4777 11859,4809 12022,4770 12120,4659 12035,4849 11970,4894 11442,4913 11227,5174 11058,5096 "/>
    <polygon class="fil11" points="11820,4608 11872,4673 12035,4686 12054,4620 12035,4588 11859,4582 "/>
    <path class="fil25" d="M11103 5155c0,0 66,111 53,182 -14,72 -59,189 -59,189l-130 20 -111 -53 6 78c0,0 241,118 274,170 33,52 26,137 26,137l-117 58 -78 65 325 274 85 -182 0 -437 0 -612c0,0 111,-176 46,-150 -65,26 -170,189 -170,189l-150 72z"/>
    <path class="fil13" d="M10654 4985l117 26 209 105 19 91c0,0 -26,110 -78,123 -52,14 -182,-58 -182,-58l-215 -104 -7 -92 46 -78 91 -13z"/>
    <polygon class="fil11" points="10732,5200 10556,5161 10537,5070 10608,4985 10667,5018 10693,5129 10784,5168 "/>
    <path class="fil14" d="M10817 8731c0,0 111,13 85,130 -27,118 -209,209 -209,209l-430 254 371 -352 7 -163 176 -78z"/>
    <path class="fil13" d="M8700 8490l-489 189 -325 202 -704 195c0,0 46,234 111,261 65,26 834,-287 834,-287 0,0 436,-104 481,-176 46,-72 7,-124 7,-124l20 -117 215 -234 -150 91z"/>
    <path class="fil14" d="M10016 9246l-13 104 364 -72c0,0 326,-228 326,-182 0,45 -13,104 -13,104l-345 215c0,0 -248,65 -267,98 -20,32 19,71 19,71l85 130 -195 -6 -163 46 -411 0 -521 -124 -449 234 -1446 489 -163 -319 26 -72 156 -274 72 -228 58 -299c0,0 209,514 293,593 85,78 886,13 886,13 0,0 313,-92 313,-118 0,-26 0,-58 -71,-71 -72,-14 -339,-33 -339,-33l182 -124 378 -149 547 0 691 -26z"/>
    <path class="fil25" d="M9162 9337l-260 6 -176 7 -156 78 156 19c0,0 6,85 -7,131 -13,45 -104,143 -104,143l-873 287 -475 123 -326 78 130 216 150 -13 938 -404 717 -333 143 -32 189 39 254 85 -183 -144 -436 -123 72 -66 247 26 320 -6 -320 -117z"/>
    <polygon class="fil14" points="9351,8894 9840,8959 9736,9167 9403,9213 9097,9284 9937,9200 10172,8816 9501,8842 9351,8829 "/>
    <polygon class="fil13" points="9579,9004 9462,9017 9436,9109 9638,9128 9709,9089 9631,8998 "/>
    <polygon class="fil25" points="10061,8881 9827,9122 9755,9233 9319,9259 9058,9297 9625,9382 9996,9252 10621,8770 10797,8679 10713,8522 10576,8529 10361,8822 "/>
    <path class="fil13" d="M10068 8490l-554 91c0,0 -117,78 -150,65 -32,-13 -13,-182 -13,-182 0,0 -345,-105 -332,-170 13,-65 209,-306 209,-306l182 -176 195 13c0,0 144,79 183,72 39,-6 202,13 202,13l-85 72c0,0 -228,19 -274,13 -45,-7 -267,13 -299,19 -33,7 -131,72 -144,131 -13,58 150,241 150,241l261 58 475 -32 -6 78z"/>
    <path class="fil14" d="M10758 7956l-71 117 -111 -59 -26 215c0,0 -183,137 -183,222 0,84 -26,241 -26,241l-690 45 -313 111 502 13 554 -52 247 -378 59 -267 52 -98 6 -110z"/>
    <polygon class="fil14" points="10485,7637 10380,7728 10250,7943 10113,8099 10211,8086 10302,8073 10458,7864 10491,7754 "/>
    <path class="fil11" d="M10341 7597c0,0 -78,33 -104,46 -26,13 -78,98 -78,98l-33 110 46 33c0,0 150,-130 163,-163 13,-32 6,-124 6,-124z"/>
    <polygon class="fil11" points="10687,7838 10641,7871 10654,8001 10713,8001 10726,7864 "/>
    <path class="fil11" d="M10543 7871l-85 52 -188 287 -66 78c0,0 -130,26 -169,52 -39,26 -176,52 -176,52l-228 46 352 -7c0,0 202,13 248,-26 45,-39 104,-104 156,-150 52,-45 104,-156 104,-156l-20 -45 85 -118 33 -65 -46 0z"/>
    <polygon class="fil13" points="10276,8451 10302,8588 10191,8659 10153,8535 10153,8405 "/>
    <path class="fil1" d="M117 10607l183 260c0,0 234,-65 938,92 703,156 912,508 912,508 0,0 -925,143 -1030,195 -104,52 -521,300 -521,300 0,0 -39,339 13,326 53,-13 235,26 235,26 0,0 -78,534 -208,664 -131,130 -287,235 -287,235l-183 26 -52 -2632z"/>
    <polygon class="fil5" points="6801,10086 6488,10594 6527,10737 6632,10789 6462,10880 5732,11115 6032,10529 6514,10268 "/>
    <polygon class="fil26" points="5381,11792 5290,11454 5511,11454 5693,11284 5915,11037 6019,11063 5928,11402 5628,11532 "/>
    <path class="fil9" d="M5172 10294l-299 782 -430 391 -599 -52 -444 -92 79 170 1550 299c0,0 13,-364 26,-469 13,-104 0,-286 0,-286l248 -834 -131 91z"/>
    <path class="fil9" d="M1238 10568c0,0 1550,234 1745,221 196,-13 1694,-325 1694,-325l417 -196c0,0 -534,756 -703,821 -170,65 -782,65 -782,65l-756 -13 -1159 -326 -456 -247z"/>
    <path class="fil1" d="M1707 10242l1094 -39 521 -573 365 -560c0,0 78,-78 130,39 52,117 -482,1303 -482,1303l-352 -144 196 209 -626 -26 -768 -157 -78 -52z"/>
    <polygon class="fil9" points="4782,9187 4638,9500 3648,9929 4365,9526 4508,9252 "/>
    <path class="fil1" d="M4143 7584c0,0 52,456 117,587 65,130 456,599 456,599l-78 104 274 26 260 235 717 13c0,0 534,-274 612,-287 78,-13 274,131 274,131l365 -834c0,0 182,-899 195,-991 13,-91 156,-1003 156,-1003l-378 1134c0,0 -91,756 -208,834 -117,78 -417,182 -417,182l-560 0 -808 208 -234 131 -118 -313 -443 -625 -182 -131z"/>
    <path class="fil9" d="M5472 6620c0,0 -182,156 -313,274 -130,117 -377,208 -377,208l64 -339 66 -273 378 91 182 39z"/>
    <path class="fil9" d="M3322 4953l560 703 -52 248 -65 91c0,0 -521,-157 -586,-104 -65,52 39,312 39,312l339 535 -417 -300 -365 -430 -482 -625 -248 -587 40 365 312 482 404 665 1225 1120 52 -404 -261 -651 65 -104 248 -131 391 13 -391 -182 -26 -131 39 -91 -104 -143 -248 -287 -443 -521 -26 157z"/>
    <polygon class="fil9" points="1863,3963 2319,4666 2853,5500 3088,5630 2957,5304 2384,4471 1928,3884 "/>
    <path class="fil9" d="M156 6125l0 626 522 938 -339 -79c0,0 -52,157 130,287 183,130 704,287 704,287l-600 52 547 886 -729 286 26 287 756 834 -991 -235 -130 -3361 -52 -860 156 52z"/>
    <polygon class="fil27" points="8041,2590 7897,2258 7890,1956 7822,1850 7331,1200 6840,528 6764,452 6568,385 5593,90 5442,74 4717,90 4535,97 4127,37 3878,369 3659,460 3274,921 2934,1072 2745,1215 2503,1465 2337,1699 2155,2031 2133,2175 2141,2477 2224,2892 2314,3013 2828,3542 3130,3807 3410,3950 3765,4298 4762,4192 5359,4117 5699,4139 5835,4026 6605,4011 6938,3882 7437,3754 7618,3580 7754,3278 7996,2923 "/>
    <polygon class="fil28" points="4263,1744 5079,2424 5487,2606 5548,2515 4898,2107 5533,2107 4898,1895 4611,1850 4294,1653 "/>
    <polygon class="fil29" points="6560,4011 5744,4041 5699,4177 5019,4132 4429,4222 3991,4252 4309,4086 4067,3860 4354,3814 3810,3497 3584,3029 3946,2817 4248,2500 4973,2878 5850,3134 7134,3452 "/>
    <path class="fil29" d="M3493 1548c15,136 106,362 106,362l211 363 -347 348 0 -363 121 -76 -152 -302 61 -332z"/>
    <path class="fil30" d="M4127 1125l-166 -242 -15 -363 45 -90 91 90 181 514 393 408 408 76 -544 -544 121 -197c0,0 -378,-378 -438,-393 -61,-15 -287,-30 -287,-30l-212 197 302 574 106 256 363 182 -348 -438z"/>
    <polygon class="fil8" points="6182,2469 5940,2621 5805,2651 5805,2772 5533,2878 5200,3119 4732,3180 5049,3013 5215,2787 5397,2772 5487,2590 5850,2500 "/>
    <polygon class="fil31" points="2813,2469 2798,2908 2949,3361 2934,2983 3009,2696 "/>
    <polygon class="fil8" points="2616,1729 2934,2273 3160,2908 2828,2409 2616,1865 "/>
    <path class="fil31" d="M3568 2197c0,0 -211,16 -211,-181 0,-196 -151,-453 -151,-453l-15 -378 -151 453 45 756 257 559 317 408 -499 -469 -377 -982 136 -438 136 -287 90 -151 151 -30 0 332 61 544 211 317z"/>
    <polygon class="fil32" points="5110,4086 4596,4011 4127,3980 4611,4132 "/>
    <polygon class="fil32" points="3357,3270 3931,3678 4611,3875 4188,3845 3901,3814 "/>
    <polygon class="fil32" points="6530,3845 6212,3875 5850,3799 5306,3557 4671,3361 5805,3618 5986,3708 6621,3769 "/>
    <polygon class="fil8" points="6666,792 7119,1412 7376,1563 7618,1563 7890,1941 7905,2228 8041,2575 7965,2757 7572,2998 7361,3059 6938,3104 6696,3044 6394,2802 6454,2681 6318,2424 6711,2469 6742,2152 7149,2515 7316,2318 6862,1714 6303,1669 5880,1578 5608,1835 5170,1835 4807,1790 5548,1729 5593,1563 5986,1457 6772,1472 6817,1366 6379,702 6212,339 "/>
    <polygon class="fil2" points="7996,2757 7603,3180 6832,3210 6333,3164 5865,3164 5563,3376 5049,3285 4520,3301 5336,3482 5910,3618 6484,3633 6681,3542 6998,3573 6696,3678 6137,3724 5699,3694 6122,3814 6636,3799 6394,3980 6621,3996 6998,3875 7316,3814 7542,3678 7663,3512 7724,3270 7965,3013 "/>
    <polygon class="fil28" points="7201,4751 7237,4858 7229,4981 7129,5182 7028,5405 6935,5886 6388,6239 5892,6555 5763,6598 5288,6569 4893,6469 4685,6195 4289,6044 4160,5994 4095,5908 4081,5822 4117,5721 4088,5642 3844,5441 3333,4866 3060,4434 2715,3938 2435,3593 2104,3672 1989,3766 1889,3909 1788,3996 1350,4211 1263,4183 1580,3938 1752,3636 2183,2896 2586,3291 2593,3514 2895,3974 3218,4405 3326,4535 3693,4851 3858,5002 4146,5362 4462,5584 4677,5800 4756,5807 4814,5714 4843,5167 4498,4614 4304,4233 4555,4226 4634,4441 4864,4887 4994,5117 5001,5211 5288,5297 5475,5362 5849,5397 6245,5405 6460,5369 6892,5182 6985,5016 7136,4794 "/>
    <path class="fil32" d="M4232 5829c0,0 280,158 374,172 93,15 316,151 316,151l165 238 158 43 0 -403c0,0 468,237 439,266 -29,29 302,302 79,302 -223,0 -446,-7 -446,-7l-431 -122 -194 -252 -295 -165 -165 -223z"/>
    <path class="fil29" d="M5087 5599l29 129 -86 130 86 86c0,0 21,100 -50,115 -72,14 -58,14 -108,-29 -51,-43 79,-72 -51,-43 -129,29 -323,-72 -323,-72l252 29 64 -36 -14 -72c0,0 29,36 65,0 36,-36 64,-108 64,-108l7 -223 65 94z"/>
    <path class="fil29" d="M6640 6088l-331 7 -237 21 -288 -14 -409 -79 165 -108 144 -21 208 -44c0,0 238,-7 202,8 -36,14 -238,151 -238,151l194 0 173 -115 194 14 122 115 173 21 194 -115 57 -93 -280 0 -122 -58 208 -79 -244 22 -130 -65 532 -201 94 -122c0,0 -719,302 -805,316 -86,14 -518,-14 -518,-14l-180 -29 231 122 -252 94 -201 172 0 201 36 252 215 -7 151 136 122 15 216 -108 604 -395z"/>
    <polygon class="fil13" points="4247,4679 4260,5031 4378,5357 4416,5526 4130,5317 4065,5044 4156,4822 4156,4666 "/>
    <path class="fil11" d="M3550 4269l-195 -150 -378 -59 456 522 287 254 280 306c0,0 32,-261 -7,-300 -39,-39 -254,-143 -254,-143l-143 -189 -46 -241z"/>
    <polygon class="fil13" points="3739,4529 3850,4666 3915,4666 3941,4510 3863,4595 "/>
    <path class="fil13" d="M3908 4405l-52 -45 -130 6 78 53c0,0 7,110 52,84 46,-26 52,-98 52,-98z"/>
    <path class="fil14" d="M6195 4054c0,0 156,156 339,260 182,105 508,105 508,105l169 -33 293 -143c0,0 -26,247 -65,260 -39,13 -280,241 -280,241l-137 39 -189 39c0,0 104,-52 92,-163 -13,-110 -59,-169 -118,-130 -58,39 -169,111 -169,111l-456 -32 -463 -222 -410 -130 -247 0 -196 58 -195 202 -98 -208 260 -163 267 -20 587 13 208 -91 300 7z"/>
    <polygon class="fil14" points="3980,4757 4065,4770 4117,4836 4117,4738 4091,4646 4078,4608 4052,4503 3987,4497 3980,4627 3935,4725 "/>
    <polygon class="fil14" points="4143,4308 4208,4353 4202,4438 4162,4497 4149,4595 4221,4523 4286,4432 4286,4236 "/>
    <path class="fil25" d="M4879 4138l554 79c0,0 325,228 384,234 59,7 221,59 261,26 39,-32 45,-163 45,-163l-85 -123 14 -150 -345 13 -209 71 -619 13z"/>
    <path class="fil25" d="M6872 4862l-104 260 -189 137c0,0 -280,124 -325,130 -46,7 -307,7 -307,7l-189 -26 -97 -170c0,0 117,46 117,-13 0,-58 -13,-130 -13,-130l98 13 149 124 216 26 221 -137 150 -143 273 -78z"/>
    <polygon class="fil25" points="5622,5070 5517,5031 5452,4946 5765,4953 6273,4979 6501,4900 6696,4913 6553,5050 5928,5031 5811,5063 "/>
    <path class="fil33" d="M7648 3590l140 -312 234 -328c0,0 63,-265 63,-390 0,-125 -110,-203 -110,-203 0,0 0,-328 -62,-453 -63,-125 -328,-437 -328,-437 0,0 -499,-874 -812,-1046 -312,-171 -1217,-390 -1373,-390 -156,0 -593,0 -593,0l-266 31 -421 -62 -297 343 -203 78 -390 484c0,0 -437,157 -656,422 -219,265 -468,624 -484,843 -15,218 94,765 94,765l453 515 530 437 234 109 313 344 281 15 359 -93 187 0 78 155 281 -218 390 -15 422 78 187 -172 281 -31 468 -16 391 -156 343 -47 141 -62 15 -141 -328 156 -343 78 -374 109 -453 16 -313 -16 -468 -46 -328 -32 671 172 -515 16 -390 15 -203 63 -671 94 -234 -203 -141 -157 -327 -171 -547 -484 -312 -344 -94 -468 0 -343 250 -469 281 -312 218 -187 407 -172 405 -468 203 -109 234 -297 484 62 859 -31 1233 375 640 843 328 437c0,0 140,187 140,343 0,156 63,266 63,266 0,0 62,203 62,281 0,78 -62,359 -62,359l-203 249 -62 328z"/>
    <path class="fil33" d="M2153 2669c0,0 -156,78 -250,141 -94,62 -156,156 -156,156l-94 187c0,0 -390,16 -437,156 -47,141 -265,375 -265,375l-141 94 -687 374 0 110 656 -391 468 -187 203 0 125 16 94 46 -125 172 -203 187 -156 79 125 31 359 -313 218 -421 313 -484 -47 -328z"/>
    <polygon class="fil33" points="2348,3075 2184,3364 1927,3832 1817,3942 1411,4191 1848,3988 1989,3824 2114,3738 2387,3738 2535,3785 2590,4066 2886,4511 3355,4948 3698,5331 3893,5541 3901,5456 3355,4800 3011,4519 2769,4207 2691,4004 2707,3871 2457,3520 2395,3348 2387,3247 2418,3161 "/>
    <polygon class="fil33" points="2715,3871 3050,4363 3589,5050 3745,5284 3238,4769 2964,4347 2629,3848 "/>
    <path class="fil33" d="M2566 3348c0,0 -39,24 -39,78 0,55 180,336 180,336l499 702 625 562 281 352 289 210 288 258c0,0 94,8 118,-23 23,-32 70,-578 70,-578l-8 -102 -336 -522 -179 -383 -63 0 180 421 328 531 -16 391 -23 179c0,0 -8,55 -71,0 -62,-55 -164,-187 -164,-187l-366 -242 -281 -359 -554 -492 -344 -445 -101 -156 257 -31 -281 -281 -289 -219z"/>
    <polygon class="fil33" points="3019,3840 3050,4168 3277,4472 3386,4582 3355,3918 3152,3801 "/>
    <path class="fil33" d="M3027 4433c0,0 -31,203 -31,383 0,179 0,804 0,804l187 23 55 -577 86 -118 7 -148 -304 -367z"/>
    <path class="fil33" d="M3721 4262c0,0 -54,-55 -54,31 0,86 54,257 54,257l133 149 149 78 -78 0c0,0 -204,-94 -227,-133 -23,-39 -94,-211 -94,-211l0 -226 63 -23 62 23 -8 55z"/>
    <path class="fil33" d="M4205 4262c0,0 -132,93 -132,187 0,93 -32,93 -32,93l-54 -46 -31 -86 -102 -70 63 -55 288 -23z"/>
    <polygon class="fil33" points="7663,3567 7640,3629 7507,3715 7538,3614 7624,3528 7702,3317 "/>
    <path class="fil33" d="M7601 3614l-16 249 -140 516 -63 140 -312 265 -109 117 -63 86 -8 188 289 -266c0,0 -39,-78 24,-132 62,-55 210,-188 210,-188l63 -101c0,0 47,-320 94,-375 46,-54 85,-296 85,-296l0 -250 -54 47z"/>
    <path class="fil33" d="M6906 4816l-273 39 -203 -16 -179 -55 -242 32 -336 -32 289 102 320 31 218 24 8 70 -125 15 -507 -23 -156 39 -180 -23 39 85 172 -7 211 -31 140 15 62 117 133 16 55 -16 86 -70 86 31c0,0 132,-93 171,-148 39,-55 110,-86 110,-86l101 -109z"/>
    <path class="fil33" d="M5899 5058c0,0 125,117 180,132 54,16 179,16 179,16l86 8 -156 39 -148 -24 -242 -140 101 -31z"/>
    <path class="fil33" d="M4487 4230l483 913 8 86c0,0 476,180 828,195 351,16 499,0 608,-23 110,-23 359,-148 359,-148l141 -39 47 -78 -133 54 -390 164 -250 39 -390 -15 -344 -47 -421 -125 -24 -109 -397 -742 -32 -109 -93 -16z"/>
    <path class="fil33" d="M7203 4816c0,0 31,109 0,187 -32,78 -195,296 -211,429 -16,133 -78,453 -78,453l-656 398c0,0 -382,273 -468,273 -86,0 -398,8 -398,8l-468 -125 -203 -257 -508 -196 -101 -125 -8 -62 70 -94 -23 -46 -367 -328 86 195 211 164c0,0 -31,156 0,242 31,86 265,164 265,164l367 156 172 257 484 125 460 -7 414 -250 687 -414 70 -86 54 -398 63 -187 140 -297 0 -148 -47 -101 -7 70z"/>
    <path class="fil33" d="M3901 5534l-31 452 31 235c0,0 0,312 16,374 15,63 328,687 328,687l93 281 63 234 390 547c0,0 62,234 62,296 0,63 -140,172 -140,172l-78 296 0 -343c0,0 218,-15 140,-265 -78,-250 -359,-562 -359,-562l-890 -859 -780 -796 1186 952 63 -218 -250 -594 78 -296 -47 -250 125 -343z"/>
    <path class="fil33" d="M529 5378c0,0 734,718 796,780 63,63 500,843 500,843l281 468 453 562 390 250 -453 -718 687 843 328 312 62 203 156 -93 625 327 234 47 156 -78 1202 0 156 31 609 -78 437 -62 -16 109 -562 31 -593 78 -218 -31 -952 0 -266 94 -843 -375 -172 172 -125 -172 0 -203 -546 -390 -453 -265 -374 -547 -640 -218 562 109 -234 -437 -578 -156 -656 -109 516 15 655 140 -530 -749 -594 -733z"/>
    <path class="fil33" d="M1216 10623l1389 328 796 15 625 -156 -312 343 -172 282 1858 374 47 -156 140 -140 -78 -94 218 31 157 -109 47 -266 155 -140 -62 328 -109 203 -234 78 -79 62 -187 281 -1530 -281 -452 -93 -203 -344c0,0 -94,16 -203,31 -110,16 -125,47 -422,-47 -296,-93 -1389,-530 -1389,-530z"/>
    <path class="fil33" d="M7101 9108c0,0 -31,437 -125,594 -93,156 -218,359 -218,359l-265 171 -282 47 -468 32c0,0 -234,46 -312,249 -78,203 -16,578 -16,578 0,0 47,172 109,187 63,16 250,16 250,16l110 -188 171 -515 422 -249 249 -203 172 -219 172 -328 78 -390 31 -219 -78 78z"/>
    <path class="fil33" d="M6789 10061l203 390 78 62 874 -343 921 -437 172 -63 351 102 406 15 226 -38c0,0 110,46 188,-16 78,-63 281,-203 281,-203l171 -203 55 -102 15 -187 -62 39 -31 203 -203 219 -242 179 -125 8 -109 -8 -86 55 -390 0 -219 -70 -250 -47c0,0 -113,12 -124,-25 -12,-38 -63,-53 -63,-53 0,0 0,35 -39,117 -39,82 -749,367 -835,382 -86,16 -718,328 -718,328 0,0 -125,16 -180,0 -54,-16 -203,-382 -203,-382l-62 78z"/>
    <polygon class="fil33" points="7062,10474 6500,10802 5891,11013 5884,11114 6570,10888 7304,10412 7171,10427 "/>
    <path class="fil33" d="M7140 9077c0,0 718,-171 804,-226 86,-55 367,-219 367,-219l437 -171c0,0 63,-149 180,-235 116,-85 203,-156 203,-156l195 -242 78 -39 242 16c0,0 70,62 187,70 117,8 242,-47 242,-47l55 -62c0,0 93,-140 163,-172 71,-31 164,16 164,16l8 86 8 78 -70 148 101 -78 148 -16 87 24 7 140c0,0 -16,86 -39,117 -23,32 -55,24 -55,79 0,54 -38,257 -54,288 -16,32 -234,297 -234,297l-227 8 -437 23 -171 24 -86 54 523 0 234 24c0,0 172,-24 210,-63 40,-39 242,-375 242,-375 0,0 47,-234 63,-280 15,-47 70,-180 70,-180l8 -133 -23 -54 -118 -39 -117 15 0 -93 -23 -110 -55 -39 -109 -8 -101 8 -55 47 -133 164 -62 55 -164 0 -78 -8 -149 -62 -257 0 -211 210 -94 102 -218 156 -117 187 -93 62 -336 94 -390 242 -867 234 117 39z"/>
    <polygon class="fil33" points="12104,7696 10777,8008 10777,7969 11995,7688 "/>
    <path class="fil33" d="M10255 8195c0,0 -110,63 -188,78 -78,16 -140,94 -140,94l-250 47 -133 -31 -187 -94 -102 -94 -15 -47 171 63c0,0 -62,62 118,101 179,39 140,16 249,16 110,0 219,-62 219,-62l109 -71 195 -78 -46 78z"/>
    <path class="fil33" d="M9981 8203l-234 -39 -343 -16 -141 24 -15 -39c0,0 85,-24 210,-24 125,0 352,24 352,24l171 70z"/>
    <path class="fil33" d="M9310 8164c70,8 172,55 234,55 62,0 187,23 187,23l149 0 101 -16 164 -85 187 -94 -140 31 -219 125 -218 0 -187 -15 -164 -47 -94 23z"/>
    <polygon class="fil33" points="10473,7883 10356,8055 10239,8203 10168,8203 10332,7992 10426,7867 "/>
    <path class="fil33" d="M11191 7906l-242 414c0,0 -55,336 -117,351 -62,16 -289,133 -289,133l-382 266 -188 117 -179 85 234 -31c0,0 375,-258 453,-320 78,-62 343,-187 390,-218 47,-32 78,-164 78,-164l63 -211 148 -273 70 -156 -39 7z"/>
    <path class="fil33" d="M11214 7789l-31 -78c0,0 -39,-39 -93,-39 -55,0 -211,32 -211,32l-86 187 125 -125 94 -39 85 0 71 55 0 54 46 -47z"/>
    <polygon class="fil33" points="10762,7914 11800,7696 12081,7672 11816,7649 10762,7860 "/>
    <path class="fil33" d="M11012 8281l0 351c0,0 -8,188 -55,234 -47,47 -211,157 -211,157l-289 171 -156 78 -39 94 273 -141 453 -304 71 -148 0 -187 0 -352 -47 47z"/>
    <path class="fil33" d="M7376 10374c0,0 -364,1016 -377,1146 -13,130 26,559 26,559l-208 859 -79 339 274 -26 0 -573 117 -690 -39 -598 377 -1055 -91 39z"/>
    <path class="fil33" d="M3667 11650c0,0 455,260 742,768 286,508 312,846 312,846l104 -13c0,0 -13,-364 -247,-742 -234,-377 -521,-703 -521,-703l-390 -156z"/>
    <path class="fil33" d="M3510 11546c0,0 79,117 14,182 -65,65 -105,209 -105,209l287 884 221 391 -390 -547 -209 -741 105 -248 77 -130z"/>
    <polygon class="fil33" points="5033,11780 5775,12574 6582,13173 5723,12379 5294,11845 "/>
    <path class="fil33" d="M10825 5520l-234 143 -91 143c0,0 -26,0 -117,26 -91,26 -234,156 -234,156l-521 -325 -234 13 -170 -299 -143 -117 -13 351 -52 -547 -91 -169 -130 -156 -117 -52 -547 -560 -325 -104 -196 -104 27 -91 247 130 312 117 560 508 312 351 78 260 248 274 52 117 260 13 417 273 195 -130 130 -13 91 -117 286 -91z"/>
    <path class="fil33" d="M9472 6444l-365 547 -793 897 -157 196 -260 13 -195 156 416 -78 -677 651 -234 221 248 -78 468 -612 338 -182 53 156c0,0 25,-351 91,-390 64,-39 715,-846 715,-846l195 -274 157 -377z"/>
    <path class="fil33" d="M10878 5533c0,0 39,169 91,338 52,169 325,456 325,456l143 286 78 143 -130 -117 -273 -429c0,0 -143,-131 -170,-222 -25,-91 -64,-156 -64,-156l-66 -286 66 -13z"/>
    <polygon class="fil33" points="10656,5793 10591,6535 10747,7563 10773,6821 10656,6249 "/>
    <path class="fil33" d="M10032 6106c0,0 169,923 169,1041 0,117 -118,637 -118,637l-13 -793c0,0 -156,-391 -208,-404 -52,-13 -312,182 -312,182l260 -351 156 -78 66 -234z"/>
    <path class="fil33" d="M10812 5559l0 -91 -130 -124 -130 -111 -97 -65c0,0 -27,-110 13,-149 38,-40 136,-98 136,-98l137 7 163 58 169 104 19 72c0,0 -110,-117 -234,-156 -124,-40 -215,-52 -215,-52l-104 39c0,0 -33,26 -39,65 -7,39 13,110 13,110l202 137 221 195 176 59 -150 13 -104 -65 6 84 -52 -32z"/>
    <path class="fil33" d="M10910 4999l19 -104 -12 -137 208 -130 189 -91c0,0 97,-65 143,-65 45,0 202,33 202,33l286 38 162 33 -19 130 -91 156 -345 20 -137 -7 -104 -13 -117 254 -78 39 -117 -13c0,0 149,52 156,202 6,150 -72,221 -72,221l157 118c0,0 25,247 6,383 -19,137 -130,85 -130,85l-169 -45 208 247 143 273 137 130c0,0 19,-306 39,-403 19,-98 -13,-196 -13,-196l-98 -162 -26 -163 -19 -286 19 -443c0,0 72,-137 98,-149 26,-13 32,-13 156,-20 124,-6 267,0 312,-26 46,-26 111,-98 111,-98l46 -104 -7 -130 228 20 137 -111 51 -156 0 -59 -487 -169 -385 -98 -143 53 -240 156 -144 110 -58 78 -7 92c0,0 78,-131 156,-176 79,-46 436,-267 436,-267l365 98 221 71 247 104c0,0 -123,170 -162,196 -39,25 -163,19 -163,19l-169 -45 -98 -85c0,0 52,26 -32,26 -85,0 -306,-7 -306,-7l-117 -39 -182 92 -176 110 -202 111 -65 78 6 195 46 26z"/>
    <path class="fil33" d="M12224 4160l254 13c0,0 111,6 163,-40 52,-45 59,-123 59,-123l-20 -85 -58 -32 -209 -39 -130 -59 -325 -26 -208 7c0,0 -137,110 -150,143 -13,32 -20,150 -20,150l-84 45c0,0 19,-176 58,-221 39,-46 156,-156 156,-156 0,0 300,-20 332,-20 33,0 319,46 319,46l98 58 299 85 -19 150c0,0 -7,91 -46,104 -39,13 -124,52 -124,52 0,0 -97,13 -195,13 -97,0 -150,-65 -150,-65z"/>
    <path class="fil33" d="M12036 3717l143 -143 195 -26 111 19 306 26 -13 131 -85 71 -195 59 -98 -46c0,0 189,0 215,-20 26,-19 65,-77 65,-77l13 -65 -137 -20 -234 -26 -143 26 -78 104 -65 -13z"/>
    <path class="fil33" d="M11730 5832c0,0 -52,-32 -117,-52 -65,-19 -117,13 -117,13l-91 59 0 -156c0,0 97,-27 136,-27 39,0 124,33 124,33l98 72 19 91 -52 -33z"/>
    <polygon class="fil33" points="11834,6008 11788,5975 11665,5962 11717,5936 11815,5936 11795,5897 11619,5910 11554,6001 11554,6066 11704,6066 11723,6151 11782,6183 11841,6164 11854,6092 "/>
    <path class="fil33" d="M11886 6847c0,0 -39,-39 -6,-52 32,-13 117,-6 117,-6l98 58 58 20 65 -33 6 -39 0 -98 46 111 -33 85 -104 6 -91 -32 -110 0 -46 -20z"/>
    <path class="fil33" d="M11847 6886l-137 -110c0,0 -45,-65 -51,-104 -7,-39 25,-117 25,-117l137 -183 59 -169 0 -117 -7 -85 -72 -71 40 208 -46 182 -52 104 -97 137 -27 65 7 71 33 72 129 130 59 -13z"/>
    <path class="fil33" d="M11535 6697c0,0 13,261 58,398 46,136 144,293 144,293l58 168 39 118 -46 0 -110 -293c0,0 -150,-293 -169,-378 -20,-84 -26,-286 -26,-286l32 -150 20 130z"/>
    <path class="fil33" d="M12485 7537c0,0 -117,-98 -176,-104 -58,-6 -156,46 -156,46l-13 117 -78 65 -52 0c0,0 0,-13 -13,-98 -13,-84 -111,-208 -111,-208 0,0 13,-39 52,-59 39,-19 182,0 182,0l-38 -78 149 65 143 98 111 156z"/>
    <path class="fil33" d="M12498 7570l-52 136 -104 46 -189 19 -71 -32 58 -6c0,0 215,-7 241,-27 26,-19 65,-91 65,-91l13 -91 39 46z"/>
    <polygon class="fil33" points="12062,7700 12075,7804 12224,7843 12062,7869 12036,7967 12016,7817 12016,7687 "/>
    <path class="fil33" d="M11860 7752l117 195 59 124 26 -117 13 149 52 39 -65 59c0,0 -13,117 39,163 52,45 72,39 241,104 169,65 390,0 390,0l371 -221 215 -91c0,0 189,-98 221,-124 33,-26 248,-46 221,-33 -26,13 -234,130 -279,170 -46,38 -150,71 -176,91 -26,19 -46,32 -46,32l-175 32 -319 209 -85 32 -436 0c0,0 -202,-156 -228,-214 -26,-59 -6,-248 -6,-248l-137 -228 -65 -123 52 0z"/>
    <polygon class="fil33" points="12882,5969 12622,5865 12472,5838 12296,5832 12205,5832 12082,5754 12153,5715 12491,5721 12628,5787 12849,5904 12947,5975 "/>
    <path class="fil33" d="M12843 6190l-98 -111 -221 -97c0,0 -19,-46 -91,-39 -72,6 -117,26 -117,26l-46 97 13 59 46 6 26 39 32 -26 0 -117 85 13c0,0 -7,79 6,111 13,32 59,65 59,65l65 7 58 -26 40 -40 58 20 20 33 65 -20z"/>
    <path class="fil33" d="M13546 7029c0,0 195,-481 195,-540 0,-58 -156,-306 -176,-397 -19,-91 -13,-533 -13,-533l195 -332 -136 345 19 215c0,0 130,-339 150,-436 20,-98 58,-319 104,-385 46,-65 352,-520 352,-520 0,0 227,-65 292,-33 65,33 72,300 72,300l13 631c0,0 130,-26 176,-254 45,-228 45,-520 45,-520 0,0 91,117 91,221 0,104 150,260 150,260 0,0 234,332 299,254 65,-78 91,-234 91,-234 0,0 124,156 131,214 6,59 -39,489 -39,489l-33 97c0,0 -117,-188 -228,-332 -110,-143 -163,-182 -163,-182l0 273c0,0 -25,-71 -117,-156 -91,-85 -162,-117 -162,-117l117 488 0 274 -319 -450c0,0 189,345 189,495 0,150 6,442 52,371 45,-72 159,-340 159,-340l-43 475 -207 99 -20 -123 -123 19c0,0 -33,-254 -79,-293 -45,-39 -136,-26 -136,-26l-202 209 -143 97c0,0 -234,247 -195,228 39,-20 32,-208 32,-208l-98 97 -78 182 -214 78z"/>
    <path class="fil33" d="M13630 4485c0,0 111,124 157,169 45,46 156,46 156,46l143 338c0,0 -150,-208 -260,-273 -111,-65 -339,-46 -339,-46l-176 7 -71 -52c0,0 156,32 195,-13 39,-46 -13,-59 -13,-118 0,-58 -13,-84 -13,-84 0,0 -169,59 -299,0 -131,-59 -33,-26 -131,-59 -97,-32 -305,-130 -305,-130l-248 -52 209 -39 58 -59 254 79c0,0 124,182 176,188 52,7 384,39 384,39l123 59z"/>
    <path class="fil33" d="M12433 3561l260 -85 267 -52c0,0 -65,98 -59,143 7,46 228,144 261,176 32,33 78,182 78,182 0,0 45,195 19,208 -26,14 -52,40 -52,40l0 110 -104 -110c0,0 189,-53 33,-98 -157,-46 -189,-85 -189,-85 0,0 -59,-143 -65,-19 -7,123 97,176 97,176l46 169 -351 -124 45 -195 7 -85 -221 -58 -46 -26 143 -26 143 -91 0 -72 -104 -33 -208 -45z"/>
    <path class="fil33" d="M14691 4251l-455 -339 -443 -266 -319 -98 -546 -98c0,0 540,176 709,241 169,65 631,423 631,423 0,0 -39,13 156,117 195,104 267,104 267,104l0 -84z"/>
    <polygon class="fil33" points="13474,3483 14014,3548 14483,3704 14769,3938 14971,4270 14555,3906 13923,3613 "/>
    <path class="fil33" d="M14294 6509l85 111 130 71 39 104 -65 104 -72 20 -143 -26c0,0 150,-20 176,-46 26,-26 13,-52 13,-52l-130 -84 -46 -111 -45 -71 58 -20z"/>
    <polygon class="fil33" points="14092,6639 14132,6750 14060,6821 14021,6886 14040,6932 14092,6899 14229,6873 14112,6867 14170,6756 14170,6717 14132,6593 "/>
    <polygon class="fil33" points="14606,6431 14646,6704 14593,6880 14522,6951 14379,6978 14379,7056 14327,7140 14450,7023 14580,6971 14646,6906 14697,6737 14697,6652 "/>
    <path class="fil33" d="M14340 6411c0,0 84,144 123,131 39,-13 26,-92 26,-92l52 -39 39 -58 -65 -72 -149 33 -26 97z"/>
    <polygon class="fil33" points="13305,8233 13741,8181 13943,8084 14320,7733 14229,7778 13949,8025 13760,8129 13390,8181 "/>
    <path class="fil33" d="M13409 8279l391 -52 156 -26c0,0 169,65 254,312 84,248 -33,384 -33,384 0,0 110,26 150,0 39,-26 266,-410 266,-410l228 -481 0 104 -215 455 -240 365 -150 32 -111 -45 65 -247 -6 -72c0,0 -124,104 -182,52 -59,-52 -72,-358 -72,-358l-91 6 -482 13 -240 -19 201 -52 111 39z"/>
    <polygon class="fil33" points="11997,8038 11815,8058 11281,8058 11118,8084 11151,8032 11359,8006 11847,8012 11945,7993 "/>
    <path class="fil33" d="M14815 8064l143 0 124 105c0,0 735,286 917,501 182,214 631,976 631,976l280 475c0,0 7,176 111,312 104,137 228,417 280,540 52,124 58,482 58,482l-45 384 -118 566c0,0 -26,215 -97,332 -71,117 -234,208 -234,208l-241 13 -710 -241 -266 20c0,0 -52,-215 -79,-176 -25,39 -162,235 -214,235 -52,0 -143,-196 -143,-196l-215 7 195 -163 -260 130 -169 -19c0,0 0,91 -59,65 -58,-26 -182,-222 -182,-222l97 -65 228 27c0,0 33,123 85,84 52,-39 137,-46 169,-169 32,-124 20,-534 20,-534l-33 -228 -228 -266 -78 -33 -169 -7c0,0 182,59 221,98 39,39 202,267 202,267l33 163 0 306 -46 188 -254 59 -267 -52 -195 -124 -247 -39 -273 -78 -105 -98 91 -32 20 -59 -176 -13 0 -84 -71 130 -144 -13 -84 -33 -46 124 -71 26 -417 -91 -429 -91 -241 -137 -228 -65 306 189 371 130c0,0 124,26 91,65 -32,39 -143,58 -143,58l-287 -58 -338 -137 26 72 -312 -46 -332 -104 -156 -32 -221 26c0,0 -59,58 -118,58 -58,0 -162,26 -195,-84 -32,-111 -65,-332 -26,-417 39,-84 124,-325 124,-325l84 -117 144 -111 156 -72c0,0 13,-52 -52,-39 -66,13 -221,91 -221,91 0,0 -346,463 -372,593 -26,130 0,364 13,423 13,58 91,130 176,130 85,0 325,-7 325,-7l170 0 182 20 195 6 443 66c0,0 -91,104 -46,97 46,-6 618,13 618,13l157 -39 214 -52 397 26 85 -85 124 -6 175 84 235 131c0,0 371,71 416,84 46,13 117,52 117,52l52 176 143 228 313 91 774 221c0,0 989,182 1178,78 189,-104 358,-364 358,-364l98 -469 91 -624c0,0 0,-410 -26,-554 -26,-143 -254,-533 -254,-533l-104 -163 -59 -234 -345 -566 -520 -807 -52 -79c0,0 -469,-319 -553,-357 -85,-39 -404,-157 -404,-157l-143 -104 -65 -19 -78 58z"/>
    <polygon class="fil33" points="14613,11220 14476,11129 14268,10960 14073,10791 13962,10700 13754,10531 13721,10459 13721,10342 13728,10283 13630,10290 13572,10329 13526,10401 13494,10374 13539,10297 13591,10264 13643,10244 13708,10231 13780,10231 13767,10401 13793,10505 14047,10700 14190,10830 14294,10908 14366,10999 14509,11103 14717,11233 "/>
    <path class="fil33" d="M13754 10661c0,0 -72,-52 -117,-117 -46,-65 -195,-196 -195,-196l-202 -110 -189 -91 -221 -98c0,0 -85,65 -85,98 0,32 78,182 78,182l169 85 59 19 111 104 104 72 26 137 -111 6 -208 -39 -124 33 -162 6 -209 7 -110 0c0,0 -104,19 -131,58 -25,39 -6,124 -6,124l143 65 300 19 175 -13 -208 -26 -280 -32 -97 -65 13 -72 78 -20 332 0 201 -13 144 -25 143 32 299 20 150 -7 58 -58 -201 32 -111 -32 -72 -202 -240 -176 -228 -98 -52 -104 32 -52 59 -19 267 143 195 91 150 111 188 202 111 71 124 33 -150 -85z"/>
    <path class="fil33" d="M13732 11174l-163 -85 -254 -117 -261 0 -267 19 -104 20 -241 26c0,0 -85,85 -20,150 66,65 261,84 261,84l117 39 463 33 123 52 53 78 130 13 -143 -130 -150 -65 -202 -13 -404 -46 -195 -45 -20 -65 33 -66 130 -6 410 -33 287 -6 189 98 150 78 78 -13z"/>
    <path class="fil33" d="M12103 11252l306 111 476 104 215 71c0,0 71,0 78,-52 6,-52 -32,-117 -32,-117l-131 -59 91 -6 85 52c0,0 33,52 33,104 0,52 -33,98 -33,98l-65 13 -345 -78 -339 -52 -287 -91 -78 -53 26 -45z"/>
    <polygon class="fil33" points="13302,11851 13302,11799 13250,11721 12755,11558 12272,11395 12448,11421 12859,11551 13237,11675 13302,11708 13334,11760 13334,11845 "/>
    <path class="fil33" d="M13478 11473l-33 59 -19 98 -53 45 -13 85 53 98 -79 -27c0,0 -45,-104 -39,-143 7,-39 91,-91 91,-91l20 -78 20 -117 52 71z"/>
    <polygon class="fil33" points="13002,10405 12755,10516 12546,10620 12348,10755 12227,10760 12585,10548 12891,10405 12970,10372 "/>
    <path class="fil33" d="M12787 10249l-234 58 -137 20 -254 111 -241 78 13 -91 -59 0 196 -228 52 -170 -33 -228 -72 -143c0,0 -58,-52 -91,-39 -32,13 -13,143 -13,143l-26 144 -32 84 -79 143 -143 111 -117 65 -196 209 -91 84 -215 59 26 -46 150 -32 300 -326 215 -117 98 -150 45 -104 19 -254 20 -59c0,0 91,0 130,33 40,32 92,137 111,182 20,46 46,189 46,189l-33 156 -45 91 -124 163 13 53 339 -118 123 -45 144 -20 189 -52 6 46z"/>
    <path class="fil33" d="M11393 8470c0,0 -189,463 -228,639 -39,175 -52,345 -52,404 0,58 7,299 7,299 0,0 0,117 -27,130 -26,13 -39,79 -39,79l13 195 53 -26 163 -150 260 -26 261 -6c0,0 0,52 -46,58 -46,7 -398,7 -398,7l-97 39 -176 143 -176 248 -65 32 -72 26 -410 46 -345 130 345 -176 404 -32 -20 -320 46 -136 26 136 32 203 137 -137 20 -333c0,0 -46,-58 -52,-143 -7,-85 19,-358 19,-358l-6 -182 -46 -196 -32 -98 52 -45 91 390 13 144 52 -411 85 -312 104 -156 104 -105z"/>
    <path class="fil33" d="M9484 9767l-358 514c0,0 -137,300 -156,424 -20,124 -39,697 -39,697 0,0 45,390 98,482 51,91 267,280 267,280l351 -124 417 -46 72 -84 241 97 59 -13 -14 -84c0,0 98,71 196,71 98,0 241,0 241,0l111 -45 52 -39c0,0 -46,-85 13,-85 58,0 111,13 111,13l-53 124 -91 58 -234 46 -235 0 -241 7 -163 -13 -391 188c0,0 -390,33 -495,-6 -104,-39 -286,-287 -286,-287 0,0 -104,-456 -104,-586 0,-130 32,-593 52,-671 19,-78 175,-423 175,-423l203 -274 143 -234 58 13z"/>
    <polygon class="fil33" points="10299,10594 10240,10412 10038,10203 9895,10138 10103,10340 10195,10496 "/>
    <path class="fil33" d="M10175 10613l-280 -221c0,0 -228,-72 -287,-72 -58,0 -175,7 -175,7l-144 52c0,0 339,-13 417,6 78,20 261,104 261,104l208 124z"/>
    <polygon class="fil33" points="10761,10548 11198,10594 11237,10561 10833,10516 "/>
    <path class="fil33" d="M14644 11193l156 -52 371 91 156 176 131 378 6 286c0,0 -19,163 -26,209 -6,46 -13,157 -13,157l-58 195c0,0 58,32 84,-52 26,-85 72,-293 72,-293l-26 -404 -20 -170 -150 -364 -97 -124 -137 -66 -280 -51 -189 26 -124 -7 144 65z"/>
    <path class="fil33" d="M15289 11330l175 13 40 91 293 -26 325 13 209 72 -157 -117 294 -254c0,0 358,-111 423,-131 65,-19 124,13 124,13l58 46c0,0 40,-170 -32,-163 -72,6 -300,46 -300,46l-247 130 -176 91 -267 209 -482 26 -118 -124 -110 -339c0,0 -65,52 -118,-104 -52,-156 -52,-502 -52,-502l85 -469 -117 280 19 -879 46 -254c0,0 65,-222 6,-235 -58,-13 -78,118 -78,176 0,59 -26,378 -26,378l-19 905c0,0 -53,267 -46,339 6,72 72,144 72,144 0,0 71,169 71,228 0,58 0,130 0,130l-208 -170 -170 -241 -162 -195 -248 -241 -169 -150 299 359 124 104c0,0 137,260 176,300 39,38 247,201 247,201l216 183 52 65 -52 52z"/>
    <path class="fil33" d="M10051 12066c0,0 -65,150 -104,163 -39,13 -52,313 -52,313l768 -261 476 -130 -801 371 -482 196 -65 91c0,0 -339,6 -391,39 -52,32 -85,91 -85,91 0,0 33,84 -26,84 -59,0 -352,79 -352,79l-338 156 -124 7 443 -222 312 -65c0,0 27,-143 124,-176 98,-33 437,-59 437,-59l58 -130c0,0 -19,20 -26,-111 -6,-130 26,-234 26,-234l105 -189 97 -13z"/>
    <path class="fil33" d="M11510 11851c0,0 -202,137 -260,254 -59,117 -209,547 -209,547l-130 365 7 235 -98 6 46 -286 221 -613 91 -274 105 -130 149 -117 78 13z"/>
    <path class="fil33" d="M10025 12926c0,0 143,20 215,91 72,72 78,235 78,235l157 0 -92 -98c0,0 -25,-59 -32,-124 -7,-65 45,-124 45,-124 0,0 -91,40 -149,40 -59,0 -222,-20 -222,-20z"/>
    <path class="fil33" d="M9941 12789c0,0 423,20 462,-6 39,-27 254,-85 254,-85l228 -163 111 -189 -333 248 -332 124 -390 71z"/>
    <path class="fil33" d="M14370 12235l19 235c0,0 -201,39 -162,176 39,137 286,345 286,345l39 235 202 32 -32 -228c0,0 -137,-163 -137,-221 0,-59 0,-241 0,-241l-117 -248 -13 -65 -91 -72 6 52z"/>
    <path class="fil33" d="M13302 11949c0,0 149,195 149,247 0,52 40,365 40,365l110 189 222 137 143 98 111 188 293 27 -319 -203c0,0 -202,-234 -248,-299 -45,-65 -110,-143 -78,-189 33,-46 183,-33 183,-33l13 -136 260 6 254 98 -33 -228 -136 -78 -449 -91 -111 -66 -144 -104 -169 -19 -65 -7 -65 85 39 13z"/>
    <path class="fil33" d="M13771 13030l-710 -202 -639 -130c0,0 -176,-124 -137,-150 40,-26 639,78 639,78 0,0 176,66 228,72 52,7 117,-59 117,-59 0,0 -13,-378 -6,-306 6,72 117,332 169,404 52,72 208,143 267,182 59,40 169,137 169,137l-97 -26z"/>
    <path class="fil33" d="M12266 12789l-462 358 -170 92 -150 0c0,0 144,-131 209,-144 65,-13 104,-293 104,-293 0,0 104,111 169,117 65,7 150,-65 150,-65l72 -71 84 -144 -6 150z"/>
    <path class="fil33" d="M11738 12053c0,0 -137,52 -143,195 -7,144 -19,190 -19,235 0,46 -79,91 -79,91l-65 267 -111 72 53 287 143 -411 208 -202c0,0 72,-78 222,-98 150,-19 221,-110 221,-110l-267 71c0,0 -221,85 -241,26 -19,-58 13,-260 13,-260l65 -163z"/>
    <path class="fil33" d="M15062 4266c0,0 340,113 419,441 79,329 45,996 45,996 0,0 -79,543 -113,667 -34,125 -373,1007 -373,1007l-272 328 -204 -90 -135 22 -91 91 -67 45 90 -294 0 -147 -181 34c0,0 -136,90 -181,67 -45,-22 -90,-146 -90,-146 0,0 -46,-46 -35,-114 12,-67 23,-113 23,-113 0,0 -11,147 136,170 147,22 283,11 283,11l169 -101c0,0 68,-12 159,-114 90,-101 215,-294 215,-294l226 -452 10 -301 -22 -299c0,0 136,272 148,147 11,-124 -23,-633 -23,-735 0,-102 -90,-407 -90,-407l-521 -306c0,0 68,-169 113,-147 45,23 159,68 159,68 0,0 68,-192 22,-339 -45,-147 -350,-351 -350,-351l-577 -158 -272 0 -746 11 690 -90c0,0 599,33 757,79 159,45 532,271 532,271l158 340 69 -91 -148 -226c0,0 159,-11 204,124 45,136 45,306 45,306l-181 90z"/>
    <path class="fil33" d="M4820 8913l443 0 678 -312 547 -131 -287 -26 -677 235c0,0 -78,104 -313,104 -234,0 -573,-26 -573,-26l182 156z"/>
    <path class="fil33" d="M12976 4458l234 221 378 157c0,0 0,-40 118,64 117,105 195,496 195,496l-208 -365 -92 -78 39 221 -52 248c0,0 13,-300 -65,-443 -78,-143 -208,-170 -208,-170l-222 -130 -117 -221z"/>
    <polygon class="fil33" points="14683,7650 14800,8105 14865,8040 14800,7571 "/>
    <polygon class="fil33" points="3557,9083 3075,9682 2541,10034 2436,9890 3010,9630 3504,9004 "/>
    <polygon class="fil33" points="11136,4432 11129,4595 11071,4640 11097,4464 "/>
    <path class="fil33" d="M14698 4372l-337 52 -259 -17c0,0 -216,86 -345,-9 -130,-95 -182,-285 -182,-285 0,0 -173,-242 -190,-311 -17,-69 -492,-190 -492,-190 0,0 380,9 458,69 77,61 345,449 345,449 0,0 43,165 121,199 78,35 112,26 112,26l-112 -250 -207 -225c0,0 362,242 423,294 60,52 103,43 103,43l-8 -285 570 440z"/>
    <path class="fil33" d="M14897 4364l-519 -208 -164 -164c0,0 234,138 311,78 78,-60 18,-199 18,-199l397 328 -43 165z"/>
    <path class="fil33" d="M12876 3534c0,0 17,-25 77,-34 61,-9 389,-26 389,-26l372 52 68 -35 216 -60c0,0 -284,-18 -345,-18 -60,0 -320,18 -320,18l-397 9 -60 94z"/>
    <polygon class="fil33" points="11641,6177 11701,6177 11787,6160 11709,6221 11649,6229 "/>
    <path class="fil33" d="M12437 8567c0,0 -378,16 -425,0 -47,-15 -142,-168 -142,-168l-21 -120 -126 -126 84 199c0,0 -42,105 74,194 115,90 178,68 178,68l540 -15 16 -32 -178 0z"/>
    <polygon class="fil33" points="11818,8258 11902,8268 12064,8363 12028,8268 11891,8216 11755,8200 "/>
    <polygon class="fil33" points="13407,11636 13575,11584 13528,11579 13407,11594 "/>
   </g>
  </g>
 </g>
</svg>
