<svg class="svg-icon" style="width: 1em; height: 1em;vertical-align: middle;fill: currentColor;overflow: hidden;" viewBox="0 0 1024 1024" version="1.1" xmlns="http://www.w3.org/2000/svg"><path d="M105.321374 914.265136c-11.700669 0-17.551004-11.702475-17.551003-17.541972 0-5.870203 5.850335-17.551004 11.7097-17.551004 269.155125-111.194286 561.722425-169.684988 848.441196-181.3983v5.839497c23.410369 0 52.662042-5.839497 76.076024-5.839497v11.711506c-292.558269 29.251673-579.284266 87.756824-854.300562 175.535323-17.551004 17.541972-40.964985 23.403144-64.375355 29.244447zM772.382332 580.741882c-29.260704 0-58.514183-5.861172-76.054349-29.240835-17.55281-23.412175-35.123682-46.826157-35.123681-76.079636 0-81.917327 23.403144-157.984319 76.068798-222.350642 46.835188-64.377161 117.042815-111.168999 193.106195-140.433316 29.251673 0 52.654817 17.563647 64.368129 40.954148-5.862978 5.850335-11.711506 11.711506-17.563647 11.711506 29.251673 11.700669 40.952342 35.102007 40.952342 64.366324 5.862978 163.834654-99.459299 310.121916-245.753787 351.072451z m157.996963-374.484627c-11.702475 5.850335-29.273347 17.551004-40.954148 29.264316-5.870203 0-5.870203-5.850335-5.870203-11.711506-87.778499 52.665654-146.281844 146.294487-152.114116 245.742949 0 11.711506 5.832272 52.665654 23.38147 46.835188 29.284184-11.7097 52.662042-23.423013 70.225688-46.835188 19.503523-21.441593 39.00524-42.894024 58.506958-64.344648 35.121876-46.81532 58.535857-105.320471 70.216658-163.847297 11.700669-17.55281-5.848528-29.253479-23.392307-35.103814zM122.872378 288.185419l-64.366323 29.251673c-5.839497 5.839497-11.689832 5.839497-17.540167 5.839497-5.862978 0-5.862978-11.713313-5.862978-17.540166 0-17.551004 11.713313-29.264316 29.273347-35.114651 35.103813-29.264316 70.20582-52.654817 111.158163-70.216657 17.551004 5.850335 29.264316 23.403144 35.11465 40.952341 0 17.540166 0 17.540166-81.919133 204.812282-29.249866 58.505151-52.651204 122.873281-58.523213 187.237798 0 5.852141 5.872009 17.55281 5.872009 23.412176v5.841303c-1.959745 1.948907-3.910458 3.912264-5.872009 5.861172-5.830466 0-11.700669 0-11.700669-5.861172-29.253479 0-52.663848-17.55281-58.505152-46.804482 0-46.813513 11.711506-99.470137 29.251673-140.433316 23.413982-64.366323 58.517795-122.871475 93.619802-187.237798zM637.792126 282.326054c11.700669 157.984319-87.760436 298.417635-239.892614 339.380813-29.264316 0-58.515989-5.850335-76.07783-29.264316-23.401338-17.561841-35.092976-46.813513-35.092976-76.056155 0-81.926358 23.403144-157.99335 76.068798-222.359673 46.804482-64.355486 117.008497-111.159968 193.086327-140.433316 29.242642 0 52.665654 17.551004 64.368129 40.975823-5.852141 5.839497-11.702475 11.689832-17.55281 11.689832 17.551004 17.549197 35.092976 46.811707 35.092976 76.066992z m-81.908295-35.103814c-11.7097 5.850335-29.260704 17.551004-40.963179 29.251673-5.850335 0-5.850335-5.850335-5.850335-11.700669-87.769468 52.665654-146.272813 146.28365-152.135791 245.762818 0 11.680801 5.862978 52.663848 23.413982 46.793645 29.251673-11.702475 52.665654-23.403144 70.20582-46.793645a140273.571944 140273.571944 0 0 0 58.515989-64.366324c35.103813-46.826157 58.514183-105.320471 70.214852-163.84549 11.713313-17.551004-5.839497-29.253479-23.401338-35.102008zM23.414885 808.944665c269.155125-111.170806 561.711587-169.684988 848.437584-181.3983v5.859365c29.251673 0 52.665654-5.859366 76.068798-5.859365v11.711506c-292.558269 29.26251-579.287878 87.778499-854.302368 175.544354-23.413982 11.713313-40.954148 17.554616-64.36813 23.3905h-5.837691c-5.872009 0-11.702475-5.835885-11.702475-17.551003 3.903233-3.896009 7.804661-7.797436 11.704282-11.697057z" fill="#231815" /></svg>