<svg xmlns="http://www.w3.org/2000/svg" xmlns:xlink="http://www.w3.org/1999/xlink" viewBox="0,0,256,256" width="480px" height="480px"><g fill="none" fill-rule="nonzero" stroke="none" stroke-width="1" stroke-linecap="butt" stroke-linejoin="miter" stroke-miterlimit="10" stroke-dasharray="" stroke-dashoffset="0" font-family="none" font-weight="none" font-size="none" text-anchor="none" style="mix-blend-mode: normal"><g transform="scale(3.2,3.2)"><path d="M42.777,77.5c-6.814,0 -11.599,-3.134 -14.22,-9.315c-1.327,-3.128 -2.057,-7.054 -2.057,-11.052v-23.633h-9.5c-0.275,0 -0.5,-0.224 -0.5,-0.5v-8.367c0,-0.199 0.103,-0.366 0.274,-0.447c10.063,-4.717 15.348,-11.843 15.707,-21.182c0.011,-0.282 0.218,-0.496 0.481,-0.496c2.238,-0.004 7.776,-0.007 10.045,-0.008c0.133,0 0.256,0.051 0.349,0.145c0.092,0.094 0.144,0.22 0.144,0.355v17.5h15.5c0.275,0 0.5,0.224 0.5,0.5v12c0,0.276 -0.225,0.5 -0.5,0.5h-15.5v23.266c-0.005,0.851 0.138,3.739 2.15,5.762c1.302,1.309 3.11,1.972 5.377,1.972c4.364,0 9.258,-1.731 11.785,-2.763c0.063,-0.026 0.128,-0.039 0.192,-0.039c0.238,0 0.495,0.192 0.495,0.501v9.695c0,0.17 -0.076,0.318 -0.208,0.407c-1.824,1.22 -8.697,5.199 -20.514,5.199z" fill="#c1f08b"></path><path d="M43,3v0v17v1h1h15v12h-15h-1v1v22.777c-0.005,0.886 0.147,3.943 2.295,6.103c1.399,1.407 3.328,2.12 5.732,2.12c4.451,0 9.413,-1.755 11.972,-2.8l0.014,9.687c-1.795,1.199 -8.564,5.113 -20.235,5.113c-6.595,0 -11.225,-3.032 -13.76,-9.01c-1.302,-3.069 -2.018,-6.924 -2.018,-10.864v-23.126v-1h-1h-9l-0.013,-8.361c10.246,-4.802 15.627,-12.074 15.977,-21.631c2.234,-0.004 7.762,-0.007 10.036,-0.008M43.007,2v0c-2.269,0.001 -7.807,0.004 -10.045,0.007c-0.539,0.001 -0.96,0.438 -0.98,0.977c-0.527,13.686 -12.076,19.182 -15.42,20.749c-0.351,0.165 -0.562,0.512 -0.562,0.899v8.368c0,0.552 0.448,1 1,1h9v23.127c0,2.135 -0.018,20.873 16.778,20.873c12.031,0 19.049,-4.118 20.792,-5.282c0.275,-0.184 0.43,-0.492 0.43,-0.823v-9.695c0,-0.576 -0.468,-1.002 -0.996,-1.002c-0.125,0 -0.254,0.024 -0.38,0.076c-2.34,0.955 -7.262,2.726 -11.596,2.726c-7.171,0 -7.028,-6.942 -7.028,-7.235v-22.765h15c0.552,0 1,-0.448 1,-1v-12c0,-0.552 -0.448,-1 -1,-1h-15v-17c0,-0.552 -0.44,-1 -0.993,-1z" fill="#4e7ab5"></path></g></g></svg>