<?xml version="1.0" encoding="iso-8859-1"?>
<!-- Uploaded to: SVG Repo, www.svgrepo.com, Generator: SVG Repo Mixer Tools -->
<svg height="800px" width="800px" version="1.1" id="Layer_1" xmlns="http://www.w3.org/2000/svg" xmlns:xlink="http://www.w3.org/1999/xlink" 
	 viewBox="0 0 512 512" xml:space="preserve">
<path style="fill:#9ED368;" d="M0,256.006C0,397.402,114.606,512.004,255.996,512C397.394,512.004,512,397.402,512,256.006
	C512.009,114.61,397.394,0,255.996,0C114.606,0,0,114.614,0,256.006z"/>
<path style="fill:#8BC052;" d="M511.89,260.337c-0.113-0.13-0.224-0.261-0.348-0.385c-0.278-0.278-0.58-0.517-0.861-0.793
	c-0.23-0.235-0.422-0.492-0.655-0.724c-0.281-0.281-81.663-81.663-81.895-81.895c-26.818-26.812-64.825-35.684-99.105-26.724
	c-0.086-0.085-0.181-0.161-0.267-0.246c-0.503-0.514-57.124-57.132-57.634-57.635c-23.172-23.633-55.366-38.194-90.494-38.194
	c-69.761,0-126.529,56.573-126.89,126.246c-0.001,0.06-0.034,0.108-0.034,0.166c0,0.035,0.02,0.064,0.02,0.099
	c0,0.133-0.02,0.261-0.02,0.395c0,35.142,14.554,67.327,38.181,90.489c0.502,0.51,1.005,1.015,1.517,1.517
	c0.502,0.51,55.602,55.612,56.113,56.113c0.087,0.089,0.165,0.187,0.253,0.274c-2.199,8.439-3.361,17.216-3.361,26.19
	c0,27.62,10.686,53.52,30.097,72.927c0.255,0.255,0.539,0.47,0.796,0.722c0.252,0.256,82.362,82.435,82.615,82.69
	c0.114,0.114,0.237,0.22,0.358,0.325C398.245,509.625,509.594,398.294,511.89,260.337z"/>
<path style="fill:#F4F6F9;" d="M428.131,176.54c-33.138-33.132-83.365-38.895-122.531-17.43
	C295.244,98.731,242.436,53.74,180.631,53.74c-69.761,0-126.529,56.573-126.89,126.247c-0.001,0.059-0.033,0.107-0.033,0.165
	c0,0.035,0.019,0.064,0.02,0.099c0,0.133-0.02,0.261-0.02,0.395c0,61.831,44.967,114.591,105.356,124.95
	c-8.234,15.013-12.654,31.956-12.654,49.632c0,27.62,10.687,53.52,30.097,72.926c19.406,19.414,45.31,30.106,72.934,30.106
	s53.527-10.691,72.934-30.106l105.756-105.739C468.347,282.205,468.347,216.759,428.131,176.54z M180.63,70.595
	c55.018,0,101.929,41.059,109.121,95.501c0.14,1.051,0.517,2.003,0.998,2.882c-1.68,1.347-3.278,2.836-4.891,4.304
	c-1.343-0.905-2.868-1.557-4.609-1.557H71.014C75.583,115.212,122.95,70.595,180.63,70.595z M166.265,289.785
	c-51.911-6.766-91.6-49.594-95.333-101.204h199.283l-93.708,93.715c-2.681,2.679-5.155,5.509-7.498,8.423
	C168.163,290.282,167.265,289.915,166.265,289.785z M310.459,416.238c-16.225,16.229-37.895,25.167-61.018,25.167
	s-44.791-8.938-61.018-25.167c-16.225-16.221-25.159-37.891-25.159-61.009c0-23.126,8.933-44.796,25.159-61.018l46.917-46.922
	l82.087,82.087l39.948,39.948L310.459,416.238z M416.213,310.499l-46.918,46.911l-39.949-39.949l-82.087-82.087l46.913-46.917
	c16.225-16.221,37.895-25.159,61.021-25.159s44.796,8.938,61.021,25.167C449.858,222.109,449.858,276.854,416.213,310.499z"/>
</svg>