<?xml version="1.0" encoding="iso-8859-1"?>
<!-- Uploaded to: SVG Repo, www.svgrepo.com, Generator: SVG Repo Mixer Tools -->
<svg height="800px" width="800px" version="1.1" id="Layer_1" xmlns="http://www.w3.org/2000/svg" xmlns:xlink="http://www.w3.org/1999/xlink" 
	 viewBox="0 0 512 512" xml:space="preserve">
<path style="fill:#9ED368;" d="M512,256.006C512,397.402,397.394,512.004,256.004,512C114.606,512.004,0,397.402,0,256.006
	C-0.007,114.61,114.606,0,256.004,0C397.394,0,512,114.614,512,256.006z"/>
<path style="fill:#8BC052;" d="M512,256.005c0-16.821-1.669-33.246-4.766-49.161c-0.122-0.121-0.241-0.243-0.364-0.364
	c-0.499-0.512-87.453-87.46-87.965-87.965c-12.406-12.762-28.163-22.382-46.34-27.406c-34.743-9.618-81.149-1.405-113.87,46.698
	c-0.179-0.178-0.369-0.325-0.549-0.5c-0.503-0.512-19.205-19.217-19.712-19.712c-29.418-29.887-67.515-34.325-96.062-26.897
	c-42.368,11.04-83.002,51.97-78.683,108.839c0.942,12.412,3.679,23.786,7.759,34.367c-0.205,2.063,0.373,4.203,1.804,5.921
	c0.303,0.365,0.714,0.559,1.063,0.857c9.085,19.919,23.136,36.893,39.551,52.303c0.519,0.496,0.992,1.024,1.517,1.517
	c0.521,0.496,207.246,207.278,207.767,207.767c0.206,0.197,0.405,0.4,0.603,0.603C432.25,473.167,512,373.937,512,256.005z"/>
<path style="fill:#F4F6F9;" d="M372.566,91.11c-35.55-9.841-83.35-1.133-116.164,49.999
	c-30.145-50.944-79.204-59.472-114.029-50.411c-42.369,11.04-83.002,51.97-78.683,108.839c0.943,12.411,3.679,23.785,7.759,34.366
	c-0.205,2.063,0.373,4.203,1.804,5.922c0.303,0.365,0.714,0.559,1.063,0.855c18.15,39.793,56.11,67.836,93.17,95.133
	c35.479,26.14,68.995,50.822,81.042,83.405c1.161,3.143,4.146,5.228,7.498,5.244c0,0,0.019,0,0.031,0
	c3.335,0,6.321-2.062,7.505-5.181c11.937-31.477,45.363-56.293,80.752-82.566c37.159-27.584,75.255-55.888,93.41-94.921
	c1.962-1.698,2.943-4.121,2.747-6.608c4.353-11.029,7.212-22.859,7.964-35.791C451.371,148.798,420.175,104.27,372.566,91.11z
	 M146.421,106.234c6.8-1.772,14.062-2.767,21.532-2.767c28.989,0,61.059,14.978,80.822,57.618c1.285,2.774,4.036,4.577,7.089,4.647
	c3.359,0.283,5.894-1.595,7.306-4.307c28.241-54.055,72.8-63.778,105.12-54.843c32.919,9.1,67.031,41.734,64.115,91.882
	c-0.362,6.229-1.367,12.177-2.802,17.936l-13.054-20.256c-1.461-2.277-3.974-3.657-6.682-3.68c-2.665,0.047-5.236,1.321-6.737,3.57
	l-23.58,35.326l-27.892-66.828c-1.278-3.057-4.287-5.295-7.611-4.93c-3.312,0.082-6.231,2.191-7.353,5.31l-28.656,79.823
	l-18.039-25.58c-1.713-2.422-4.656-3.719-7.564-3.339c-2.947,0.372-5.443,2.339-6.498,5.11l-25.235,66.4l-31.767-104.003
	c-1.019-3.335-4.071-5.628-7.556-5.682c-3.465-0.204-6.604,2.151-7.721,5.447l-22.609,66.62l-17.522-46.033
	c-1.07-2.814-3.629-4.789-6.623-5.122c-3.01-0.314-5.918,1.046-7.575,3.558l-20.61,31.227l-14.497-25.705
	c-1.172-2.074-3.198-3.519-5.541-3.951c-2.336-0.447-4.754,0.199-6.58,1.721l-18.17,15.107c-2.141-7.034-3.644-14.387-4.237-22.188
	C75.875,147.991,111.605,115.307,146.421,106.234z M334.743,323.83c-31.674,23.515-61.854,45.916-78.585,74.085
	c-16.781-29.079-47.213-51.497-79.153-75.026c-34.444-25.368-69.75-51.398-86.923-86.618l14.883-12.374l16.225,28.77
	c1.376,2.437,3.915,3.982,6.714,4.08c2.685,0.153,5.44-1.266,6.976-3.601l19.219-29.119l19.885,52.233
	c1.207,3.167,4.362,5.173,7.646,5.173c3.386-0.063,6.368-2.242,7.454-5.447l21.774-64.159l31.341,102.612
	c1.004,3.284,3.982,5.565,7.411,5.675c0.091,0.007,0.18,0.007,0.267,0.007c3.324,0,6.318-2.053,7.501-5.173l28.202-74.207
	l18.236,25.861c1.728,2.446,4.675,3.708,7.638,3.324c2.966-0.4,5.463-2.422,6.478-5.236l26.881-74.881l25.693,61.556
	c1.14,2.727,3.687,4.612,6.635,4.895c2.955,0.318,5.808-1.074,7.446-3.531l25.102-37.607l13.096,20.319
	C405.957,270.912,369.918,297.719,334.743,323.83z"/>
</svg>