<?xml version="1.0" encoding="UTF-8"?><svg  color="red" id="a" xmlns="http://www.w3.org/2000/svg" viewBox="0 0 150 150"><defs><style>.b{fill:none;}</style></defs><path  class="b" d="M0,0H150V150H0V0Z"/><path d="M93.72,16.36v2.33c6.47,2.55,25.78,8.49,30.77,26.73h2.65V16.25l-33.42,.11Zm-8.49,30.87c7,4.99,3.71,14.43,3.71,14.43,0,0,6.79-7.11,6.79-16.34,0-5.52-3.61-10.08-8.17-14.22-6.79-6.15-20.47-14.75-20.47-14.75H24.87v29.07h2.65c3.61-13.37,13.15-20.58,20.9-24.61,10.61,7.53,31.83,22.81,36.81,26.42Z"/><path d="M90.64,65.79c-4.77-3.61-19.41-14.32-21.96-16.13-8.38-6.05-3.71-14.53-3.71-14.53,0,0-8.59,9.44-8.81,16.23-.11,4.56,3.71,9.23,7.64,12.41,5.83,4.67,16.76,12.73,20.58,15.91,5.73,4.77,1.49,13.05,1.49,13.05,0,0,9.44-9.55,9.65-16.34,.21-4.56-.21-7-4.88-10.61Z"/><path d="M95.63,109.5c.11-4.56-.32-7-5.09-10.61-4.67-3.61-19.41-14.32-21.85-16.13-8.38-6.05-3.71-14.53-3.71-14.53,0,0-8.59,9.44-8.81,16.23-.11,4.56,3.71,9.23,7.64,12.41,5.83,4.67,16.76,12.73,20.58,15.91,5.73,4.77,1.49,13.05,1.49,13.05,0,0,9.55-9.55,9.76-16.34Z"/><path d="M65.92,112.26h-1.91s-.42,21.96-13.58,21.96v4.03h51.98v-4.03c-14-.11-36.49-21.96-36.49-21.96Z"/></svg>